<svg id="eNJoFMHDsyc1" xmlns="http://www.w3.org/2000/svg" xmlns:xlink="http://www.w3.org/1999/xlink" viewBox="0 0 756 756" shape-rendering="geometricPrecision" text-rendering="geometricPrecision"><g clip-rule="evenodd"><path d="M607.38,438.18c0-126.87-102.85-229.71-229.72-229.71s-229.72,102.84-229.72,229.71" clip-rule="evenodd" fill="none" fill-rule="evenodd" stroke="#2b2a29" stroke-width="25" stroke-miterlimit="22.9256"/><circle r="140.64" transform="translate(377.66 438.18)" clip-rule="evenodd" fill="none" fill-rule="evenodd" stroke="#2b2a29" stroke-width="25" stroke-miterlimit="22.9256"/><line x1="147.94" y1="438.18" x2="147.94" y2="703.08" clip-rule="evenodd" fill="none" fill-rule="evenodd" stroke="#2b2a29" stroke-width="25" stroke-miterlimit="22.9256"/><line x1="607.38" y1="438.18" x2="607.38" y2="720.95" clip-rule="evenodd" fill="none" fill-rule="evenodd" stroke="#2b2a29" stroke-width="25" stroke-miterlimit="22.9256"/><path d="M154.58,700.62c53-11.56,106.01-23.12,162.46-17.7c56.46,5.43,116.36,27.82,164.35,36.89c48,9.07,84.08,4.8,104.04,2.31c19.95-2.49,23.78-3.21,27.6-3.93" clip-rule="evenodd" fill="none" fill-rule="evenodd" stroke="#2b2a29" stroke-width="16.67" stroke-miterlimit="22.9256"/><path d="M337.71,470.19v-215.45h-39.94L377.66,39.3l79.89,215.44h-39.94v215.45h-79.9Zm39.95,0" clip-rule="evenodd" fill="none" stroke="#2b2a29" stroke-width="16.67" stroke-miterlimit="22.9256"/></g></svg>
