<svg id="e2OgxABX4LM1" xmlns="http://www.w3.org/2000/svg" xmlns:xlink="http://www.w3.org/1999/xlink" viewBox="0 0 116.46 122.88" shape-rendering="geometricPrecision" text-rendering="geometricPrecision"><g><path d="M70.25,76.16c.17-.26.37-.49.59-.68c2.84-4.28,6.31-8.24,9.77-11.51c2.83-2.67,5.68-4.9,8.17-6.46c2.83-1.77,5.4-2.75,7.31-2.69c1.7.05,2.99.76,3.76,2.19c1.29,2.42.72,5.66-1.21,9.2-1.87,3.44-5.13,7.39-9.11,11.11-3.92,3.66-8.59,7.14-13.37,9.7-1.83.98-3.68,1.82-5.53,2.5-.24,1.16-.39,2.3-.44,3.38-.09,2.17.25,4.09,1.08,5.54.75,1.3,1.96,2.25,3.7,2.68c1.58.39,3.58.38,6.06-.12.59-1.6,1.33-3.19,2.19-4.77c2.51-4.62,6.08-9.06,10.09-12.62c8.29-7.36,13.89-10.66,17.16-11.28c3.84-.73,5.75.89,5.97,4.09.13,1.88-.69,4.43-2.33,7.23-4.26,7.27-14.75,17.67-28.33,22.02l-.23.07c-.2.89-.33,1.76-.39,2.6-.18,2.7.42,5.15,2.08,7.01.69.78,1.58,1.47,2.67,2.07c1.37.75,1.82,2.5,1,3.91s-2.6,1.95-3.97,1.21c-1.66-.9-3.02-1.99-4.12-3.22-2.72-3.06-3.73-6.91-3.45-11.07.03-.39.06-.79.11-1.19-2.35.26-4.41.13-6.19-.31-3.3-.81-5.62-2.67-7.09-5.21-.77-1.33-1.28-2.84-1.56-4.47-.02-.07-.04-.14-.05-.21-.35-1.87-.38-3.8-.15-5.75-3.58.47-6.96.06-9.89-1.54-1.66-.9-3.02-1.99-4.12-3.22-2.72-3.06-3.73-6.91-3.45-11.07.03-.4.07-.8.12-1.2-.68.07-1.36.11-2.02.12-2.87.02-5.53-.6-7.79-2.14-2.74-1.87-4.36-4.76-4.96-8.23-.03-.09-.05-.18-.07-.28-.35-1.87-.38-3.8-.15-5.75-3.58.47-6.96.06-9.89-1.54-1.66-.9-3.02-1.99-4.12-3.22-2.72-3.06-3.73-6.91-3.45-11.07.03-.41.07-.83.12-1.25-1.82.17-3.47.1-4.97-.17-3.16-.58-5.6-2.08-7.28-4.28-1.6-2.14-2.46-4.89-2.52-8.04-.07-3.86,1.06-8.38,3.43-13.12C4.95,12.08,6.98,9.12,9.49,6.5c2.32-2.42,5.03-4.54,8.1-6.16c1.44-.76,3.17-.24,3.86,1.17s.08,3.16-1.36,3.92c-2.48,1.3-4.67,3.02-6.54,4.96-2.05,2.14-3.72,4.58-4.98,7.09-1.93,3.86-2.86,7.41-2.8,10.33.04,1.95.51,3.59,1.43,4.78.86,1.13,2.18,1.91,3.95,2.23c1.44.26,3.16.23,5.17-.15.59-1.59,1.33-3.18,2.18-4.74c2.51-4.62,6.08-9.06,10.09-12.62C36.87,9.96,42.48,6.67,45.75,6.04c3.84-.73,5.75.89,5.97,4.09.13,1.88-.69,4.43-2.33,7.23-4.26,7.27-14.75,17.67-28.33,22.02l-.23.07c-.2.89-.33,1.76-.39,2.6-.18,2.7.42,5.14,2.08,7.01.69.78,1.58,1.47,2.67,2.07c2.31,1.26,5.22,1.33,8.39.59.49-1.37,1.08-2.74,1.75-4.1.71-1.46,1.52-2.92,2.44-4.34c2.96-4.7,6.73-9.08,10.49-12.63c2.83-2.68,5.68-4.9,8.17-6.46c2.83-1.77,5.4-2.75,7.31-2.69c1.7.05,2.99.76,3.76,2.19c1.29,2.42.72,5.66-1.21,9.2-1.87,3.44-5.13,7.39-9.11,11.11-3.92,3.66-8.59,7.14-13.37,9.7-1.83.98-3.67,1.82-5.51,2.49-.24,1.11-.39,2.2-.44,3.24-.17,3.46.73,6.32,2.85,7.77c1.25.85,2.84,1.2,4.63,1.18c1.04-.01,2.14-.14,3.29-.37.59-1.6,1.33-3.19,2.19-4.77c2.51-4.62,6.08-9.06,10.09-12.62C69.2,43.26,74.8,39.96,78.07,39.34c3.84-.73,5.75.89,5.97,4.09.13,1.88-.69,4.43-2.33,7.23-4.26,7.27-14.75,17.67-28.33,22.02l-.23.07c-.2.89-.33,1.76-.39,2.6-.18,2.7.42,5.14,2.08,7.01.69.78,1.58,1.47,2.67,2.07c2.31,1.26,5.22,1.33,8.39.59.19-.53.4-1.06.61-1.59.98-2.47,2.24-4.95,3.74-7.27v0ZM42.97,45.55c-.08.21-.18.42-.32.62-.56.86-1.07,1.72-1.54,2.59l.18-.1c4.28-2.29,8.5-5.44,12.07-8.77c3.51-3.28,6.33-6.68,7.9-9.56.65-1.19,1.06-2.18,1.17-2.88-.77.25-1.84.8-3.11,1.6-2.17,1.35-4.66,3.31-7.19,5.69-3.26,3.1-6.55,6.85-9.16,10.81v0ZM23.67,32.3c9.97-4.38,17.52-12.1,20.79-17.68.62-1.06,1.06-1.97,1.3-2.68-2.51.86-6.85,3.76-13.43,9.61-3.44,3.05-6.49,6.83-8.66,10.75v0ZM56,65.62c9.97-4.38,17.52-12.1,20.79-17.68.62-1.06,1.06-1.97,1.3-2.68-2.51.86-6.85,3.76-13.43,9.61-3.43,3.05-6.49,6.83-8.66,10.75v0ZM73.35,82.13c.1-.05.19-.1.29-.15c4.28-2.29,8.5-5.44,12.07-8.77c3.51-3.28,6.33-6.68,7.9-9.56.65-1.19,1.06-2.18,1.17-2.88-.77.25-1.84.8-3.11,1.6-2.17,1.35-4.66,3.31-7.19,5.69-4.17,3.93-8.36,8.93-11.13,14.07v0ZM88.39,98.6c9.97-4.38,17.52-12.1,20.79-17.68.62-1.06,1.06-1.97,1.3-2.68-2.51.86-6.85,3.76-13.43,9.61-3.43,3.05-6.49,6.83-8.66,10.75v0Z" fill="#2b2a29"/></g></svg>
