<?xml version="1.0" encoding="UTF-8"?>
<!DOCTYPE svg PUBLIC "-//W3C//DTD SVG 1.1//EN" "http://www.w3.org/Graphics/SVG/1.1/DTD/svg11.dtd">
<!-- Creator: CorelDRAW X6 -->
<svg xmlns="http://www.w3.org/2000/svg" xml:space="preserve" width="210mm" height="297mm" version="1.1" style="shape-rendering:geometricPrecision; text-rendering:geometricPrecision; image-rendering:optimizeQuality; fill-rule:evenodd; clip-rule:evenodd"
viewBox="0 0 21000 29700"
 xmlns:xlink="http://www.w3.org/1999/xlink">
 <defs>
  <style type="text/css">
   <![CDATA[
    .fil0 {fill:black}
   ]]>
  </style>
 </defs>
 <g id="Слой_x0020_1">
  <metadata id="CorelCorpID_0Corel-Layer"/>
  <path class="fil0" d="M12114 15829l-549 -562 1654 -1667 1283 1296c-202,56 -42,86 -377,86 -398,0 -464,-247 -688,-397 -226,53 -1077,1079 -1323,1243zm-2196 -5079l244 -259c115,76 1724,1711 1998,1985 410,410 444,204 -529,1177 -143,143 -267,267 -410,410 -115,115 -311,337 -430,417l-641 -628 886 -900c-46,-167 -821,-1607 -976,-1920 -51,-103 -92,-189 -141,-282zm1540 -1555c339,177 702,348 1053,523 1323,662 764,248 1858,1343l814 800 -482 497c37,122 193,233 277,317 177,177 474,428 533,631 68,235 11,282 -37,487 -214,-143 -1004,-1058 -1111,-1058 -113,0 -739,739 -899,847 -258,-385 -417,-99 -747,231 -121,121 -1396,1335 -1396,1435 0,108 130,210 212,265l-4967 4980 -1071 -1058 277 -292c99,64 292,361 406,247 129,-129 -119,-211 -253,-411l444 -429c234,161 417,524 550,391 140,-140 -221,-299 -385,-544l443 -456c81,56 430,475 430,192 0,-94 -236,-261 -291,-344l456 -443c130,84 353,417 496,417 302,0 -312,-534 -344,-582l444 -429c17,12 429,487 429,165 0,-91 -212,-239 -265,-317l429 -444c78,51 576,670 576,311 0,-89 -358,-378 -423,-476l444 -429c54,37 429,474 429,165 0,-91 -212,-239 -265,-317l443 -456c135,93 562,666 562,324 0,-89 -358,-378 -423,-476l350 -338 305 290c167,-43 825,-759 991,-925 183,-183 893,-808 893,-1038 0,-131 -108,-215 -159,-291 118,-79 315,-301 430,-417 518,-518 531,-408 172,-767 -264,-264 -1754,-1779 -1872,-1858l244 -259zm-482 206c0,140 138,231 218,311 268,267 1778,1805 1898,1885l-747 761c-266,-174 -2042,-2110 -2163,-2110 -121,0 -213,147 -311,245 -297,296 -214,160 205,999 101,202 690,1324 714,1429l-906 920c48,161 333,339 430,483 -70,104 -213,230 -311,324l-318 317c-110,110 -205,213 -318,317l-1827 1824c-342,310 -1280,1285 -1664,1669 -805,805 -807,503 13,1323 819,819 517,819 1323,13 441,-441 4305,-4340 4451,-4438 128,86 315,306 450,423 282,-149 1014,-1054 1296,-1243 64,43 77,72 143,122 570,433 1180,131 1180,-95 0,-81 -199,-239 -258,-298 -103,-103 -188,-188 -291,-291 -142,-142 -469,-436 -562,-575l734 -747c218,149 1012,1065 1118,1065 128,0 560,-565 -46,-1171 -99,-99 -427,-387 -456,-496 131,-195 408,-348 450,-503 -79,-118 -301,-315 -417,-430 -152,-152 -285,-285 -437,-437 -230,-230 -856,-917 -1104,-1039l-873 -423c-159,-79 -1063,-556 -1164,-556 -76,0 -180,140 -231,192 -34,34 -218,205 -218,231z"/>
 </g>
</svg>
