<svg id="eptCGAz1xDk1" xmlns="http://www.w3.org/2000/svg" xmlns:xlink="http://www.w3.org/1999/xlink" viewBox="0 0 1181 590.5" shape-rendering="geometricPrecision" text-rendering="geometricPrecision"><g clip-rule="evenodd"><g clip-rule="evenodd"><line x1="590.4" y1="316.32" x2="590.4" y2="55.84" clip-rule="evenodd" fill="none" fill-rule="evenodd" stroke="#2b2a29" stroke-width="16.67" stroke-linecap="round" stroke-linejoin="bevel" stroke-miterlimit="22.9256"/><line x1="590.4" y1="316.32" x2="612.92" y2="232.86" clip-rule="evenodd" fill="none" fill-rule="evenodd" stroke="#2b2a29" stroke-width="16.67" stroke-linecap="round" stroke-linejoin="bevel" stroke-miterlimit="22.9256"/><line x1="590.4" y1="316.32" x2="567.87" y2="232.86" clip-rule="evenodd" fill="none" fill-rule="evenodd" stroke="#2b2a29" stroke-width="16.67" stroke-linecap="round" stroke-linejoin="bevel" stroke-miterlimit="22.9256"/><line x1="220.99" y1="362.16" x2="959.11" y2="362.16" clip-rule="evenodd" fill="none" fill-rule="evenodd" stroke="#2b2a29" stroke-width="41.66" stroke-linecap="round" stroke-linejoin="bevel" stroke-miterlimit="22.9256"/><line x1="959.11" y1="362.16" x2="919.71" y2="432.15" clip-rule="evenodd" fill="none" fill-rule="evenodd" stroke="#2b2a29" stroke-width="8.27" stroke-linecap="round" stroke-linejoin="bevel" stroke-miterlimit="22.9256"/><line x1="959.11" y1="362.16" x2="998.51" y2="432.15" clip-rule="evenodd" fill="none" fill-rule="evenodd" stroke="#2b2a29" stroke-width="8.27" stroke-linecap="round" stroke-linejoin="bevel" stroke-miterlimit="22.9256"/><line x1="998.51" y1="469.94" x2="919.71" y2="469.94" clip-rule="evenodd" fill="none" fill-rule="evenodd" stroke="#2b2a29" stroke-width="8.27" stroke-linecap="round" stroke-linejoin="bevel" stroke-miterlimit="22.9256"/><line x1="875.87" y1="452.23" x2="1042.35" y2="452.23" clip-rule="evenodd" fill="none" fill-rule="evenodd" stroke="#2b2a29" stroke-width="41.66" stroke-linecap="round" stroke-linejoin="bevel" stroke-miterlimit="22.9256"/><line x1="220.99" y1="362.16" x2="260.39" y2="432.15" clip-rule="evenodd" fill="none" fill-rule="evenodd" stroke="#2b2a29" stroke-width="12.5" stroke-linecap="round" stroke-linejoin="bevel" stroke-miterlimit="22.9256"/><line x1="260.39" y1="432.15" x2="181.6" y2="432.15" clip-rule="evenodd" fill="none" fill-rule="evenodd" stroke="#2b2a29" stroke-width="12.5" stroke-linecap="round" stroke-linejoin="bevel" stroke-miterlimit="22.9256"/><line x1="220.99" y1="362.16" x2="181.6" y2="432.15" clip-rule="evenodd" fill="none" fill-rule="evenodd" stroke="#2b2a29" stroke-width="12.5" stroke-linecap="round" stroke-linejoin="bevel" stroke-miterlimit="22.9256"/><path d="M211.72,456.12c0-8.67-7.02-15.7-15.7-15.7-8.67,0-15.7,7.03-15.7,15.7s7.03,15.7,15.7,15.7c8.68,0,15.7-7.03,15.7-15.7Z" clip-rule="evenodd" fill="none" fill-rule="evenodd" stroke="#2b2a29" stroke-width="12.5" stroke-linecap="round" stroke-linejoin="bevel" stroke-miterlimit="22.9256"/><path d="M261.66,456.12c0-8.67-7.03-15.7-15.7-15.7s-15.7,7.03-15.7,15.7s7.03,15.7,15.7,15.7s15.7-7.03,15.7-15.7Z" clip-rule="evenodd" fill="none" fill-rule="evenodd" stroke="#2b2a29" stroke-width="12.5" stroke-linecap="round" stroke-linejoin="bevel" stroke-miterlimit="22.9256"/><line x1="137.75" y1="494.26" x2="304.23" y2="494.26" clip-rule="evenodd" fill="none" fill-rule="evenodd" stroke="#2b2a29" stroke-width="41.66" stroke-linecap="round" stroke-linejoin="bevel" stroke-miterlimit="22.9256"/><line x1="245.96" y1="477.38" x2="232.34" y2="477.38" clip-rule="evenodd" fill="none" fill-rule="evenodd" stroke="#2b2a29" stroke-width="8.27" stroke-linecap="round" stroke-linejoin="bevel" stroke-miterlimit="22.9256"/><line x1="227.8" y1="477.38" x2="223.26" y2="477.38" clip-rule="evenodd" fill="none" fill-rule="evenodd" stroke="#2b2a29" stroke-width="8.27" stroke-linecap="round" stroke-linejoin="bevel" stroke-miterlimit="22.9256"/><line x1="218.72" y1="477.38" x2="214.18" y2="477.38" clip-rule="evenodd" fill="none" fill-rule="evenodd" stroke="#2b2a29" stroke-width="8.27" stroke-linecap="round" stroke-linejoin="bevel" stroke-miterlimit="22.9256"/><line x1="209.64" y1="477.38" x2="196.02" y2="477.38" clip-rule="evenodd" fill="none" fill-rule="evenodd" stroke="#2b2a29" stroke-width="8.27" stroke-linecap="round" stroke-linejoin="bevel" stroke-miterlimit="22.9256"/><line x1="1009.48" y1="494.07" x2="1033.61" y2="469.94" clip-rule="evenodd" fill="none" fill-rule="evenodd" stroke="#2b2a29" stroke-width="12.5" stroke-linecap="round" stroke-linejoin="bevel" stroke-miterlimit="22.9256"/><line x1="976.08" y1="494.07" x2="1000.21" y2="469.94" clip-rule="evenodd" fill="none" fill-rule="evenodd" stroke="#2b2a29" stroke-width="12.5" stroke-linecap="round" stroke-linejoin="bevel" stroke-miterlimit="22.9256"/><line x1="942.68" y1="494.07" x2="966.81" y2="469.94" clip-rule="evenodd" fill="none" fill-rule="evenodd" stroke="#2b2a29" stroke-width="12.5" stroke-linecap="round" stroke-linejoin="bevel" stroke-miterlimit="22.9256"/><line x1="909.27" y1="494.07" x2="933.4" y2="469.94" clip-rule="evenodd" fill="none" fill-rule="evenodd" stroke="#2b2a29" stroke-width="12.5" stroke-linecap="round" stroke-linejoin="bevel" stroke-miterlimit="22.9256"/><line x1="875.87" y1="494.07" x2="900" y2="469.94" clip-rule="evenodd" fill="none" fill-rule="evenodd" stroke="#2b2a29" stroke-width="12.5" stroke-linecap="round" stroke-linejoin="bevel" stroke-miterlimit="22.9256"/><line x1="271.37" y1="536.1" x2="295.5" y2="511.97" clip-rule="evenodd" fill="none" fill-rule="evenodd" stroke="#2b2a29" stroke-width="12.5" stroke-linecap="round" stroke-linejoin="bevel" stroke-miterlimit="22.9256"/><line x1="237.96" y1="536.1" x2="262.09" y2="511.97" clip-rule="evenodd" fill="none" fill-rule="evenodd" stroke="#2b2a29" stroke-width="12.5" stroke-linecap="round" stroke-linejoin="bevel" stroke-miterlimit="22.9256"/><line x1="204.56" y1="536.1" x2="228.69" y2="511.97" clip-rule="evenodd" fill="none" fill-rule="evenodd" stroke="#2b2a29" stroke-width="12.5" stroke-linecap="round" stroke-linejoin="bevel" stroke-miterlimit="22.9256"/><line x1="171.16" y1="536.1" x2="195.29" y2="511.97" clip-rule="evenodd" fill="none" fill-rule="evenodd" stroke="#2b2a29" stroke-width="12.5" stroke-linecap="round" stroke-linejoin="bevel" stroke-miterlimit="22.9256"/><line x1="137.75" y1="536.1" x2="161.88" y2="511.97" clip-rule="evenodd" fill="none" fill-rule="evenodd" stroke="#2b2a29" stroke-width="12.5" stroke-linecap="round" stroke-linejoin="bevel" stroke-miterlimit="22.9256"/><path d="M984.5,362.16c0-14.03-11.37-25.39-25.39-25.39s-25.39,11.36-25.39,25.39c0,14.02,11.37,25.39,25.39,25.39s25.39-11.37,25.39-25.39Z" clip-rule="evenodd" fill="none" fill-rule="evenodd" stroke="#2b2a29" stroke-width="16.67" stroke-linecap="round" stroke-linejoin="bevel" stroke-miterlimit="22.9256"/><path d="M246.38,362.16c0-14.03-11.36-25.39-25.39-25.39-14.02,0-25.39,11.36-25.39,25.39c0,14.02,11.37,25.39,25.39,25.39c14.03,0,25.39-11.37,25.39-25.39Z" clip-rule="evenodd" fill="none" fill-rule="evenodd" stroke="#2b2a29" stroke-width="16.67" stroke-linecap="round" stroke-linejoin="bevel" stroke-miterlimit="22.9256"/><path d="M489.86,57.3c-2.4,6.87-4.81,13.73-6.44,20.07-1.63,6.33-2.49,12.14-4.17,20.04-1.68,7.91-4.18,17.91-6.13,29.07-1.95,11.17-3.35,23.5-4.75,35.83" clip-rule="evenodd" fill="none" fill-rule="evenodd" stroke="#2b2a29" stroke-width="25" stroke-linecap="round" stroke-linejoin="bevel" stroke-miterlimit="22.9256"/><path d="M489.86,57.3c8.3.8,16.6,1.6,23.57,5.08c6.97,3.49,12.62,9.66,13.78,17.38s-2.17,16.99-8.32,23.08c-6.14,6.1-15.1,9.01-22.84,10.6s-14.26,1.84-17.51,1.89-3.21-.11-3.18-.27" clip-rule="evenodd" fill="none" fill-rule="evenodd" stroke="#2b2a29" stroke-width="25" stroke-linecap="round" stroke-miterlimit="22.9256"/></g></g></svg>
