<svg cache-id="52b210a3be6d4b94baffb9d1e0bfa69d" id="eWDyta326U81" xmlns="http://www.w3.org/2000/svg" xmlns:xlink="http://www.w3.org/1999/xlink" viewBox="0 0 128 128" shape-rendering="geometricPrecision" text-rendering="geometricPrecision"><g clip-rule="evenodd"><polygon points="17.38,7.24 22.67,7.24 22.67,119.69 17.38,119.69" clip-rule="evenodd" fill="#2b2a29" fill-rule="evenodd" stroke="#2b2a29" stroke-width="0.4" stroke-miterlimit="22.9256"/><polygon points="22.67,73.38 123.08,73.38 123.08,80 22.67,80" clip-rule="evenodd" fill="#2b2a29" fill-rule="evenodd" stroke="#2b2a29" stroke-width="0.4" stroke-miterlimit="22.9256"/><polygon points="20.26,8.77 1.68,20.96 3.13,23.17 21.71,10.98" clip-rule="evenodd" fill="#2b2a29" fill-rule="evenodd" stroke="#2b2a29" stroke-width="0.4" stroke-miterlimit="22.9256"/><polygon points="20.26,26.77 1.68,38.96 3.13,41.17 21.71,28.98" clip-rule="evenodd" fill="#2b2a29" fill-rule="evenodd" stroke="#2b2a29" stroke-width="0.4" stroke-miterlimit="22.9256"/><polygon points="20.26,45.57 1.68,57.76 3.13,59.97 21.71,47.78" clip-rule="evenodd" fill="#2b2a29" fill-rule="evenodd" stroke="#2b2a29" stroke-width="0.4" stroke-miterlimit="22.9256"/><polygon points="20.26,63.57 1.68,75.76 3.13,77.97 21.71,65.78" clip-rule="evenodd" fill="#2b2a29" fill-rule="evenodd" stroke="#2b2a29" stroke-width="0.4" stroke-miterlimit="22.9256"/><polygon points="20.26,82.17 1.68,94.36 3.13,96.57 21.71,84.38" clip-rule="evenodd" fill="#2b2a29" fill-rule="evenodd" stroke="#2b2a29" stroke-width="0.4" stroke-miterlimit="22.9256"/><polygon points="20.26,100.17 1.68,112.36 3.13,114.57 21.71,102.38" clip-rule="evenodd" fill="#2b2a29" fill-rule="evenodd" stroke="#2b2a29" stroke-width="0.4" stroke-miterlimit="22.9256"/><polygon points="120.25,14.47 121.98,14.47 121.98,66.23 120.25,66.23" clip-rule="evenodd" fill="#2b2a29" fill-rule="evenodd" stroke="#2b2a29" stroke-width="0.4" stroke-miterlimit="22.9256"/><polygon points="120.56,59.1 120.56,65.63 116.73,65.63 121.11,72.19 125.5,65.63 121.66,65.63 121.66,59.1" clip-rule="evenodd" fill="#2b2a29" stroke="#2b2a29" stroke-width="0.4" stroke-miterlimit="22.9256"/><polygon points="22.26,28.64 121.36,73.89 120.08,76.68 20.99,31.43" clip-rule="evenodd" fill="#2b2a29" fill-rule="evenodd" stroke="#2b2a29" stroke-width="0.4" stroke-miterlimit="22.9256"/><polygon points="32.32,35.63 33.78,35.63 33.78,74.26 32.32,74.26" clip-rule="evenodd" fill="#2b2a29" fill-rule="evenodd" stroke="#2b2a29" stroke-width="0.4" stroke-miterlimit="22.9256"/><polygon points="43.72,40.26 45.18,40.26 45.18,74.26 43.72,74.26" clip-rule="evenodd" fill="#2b2a29" fill-rule="evenodd" stroke="#2b2a29" stroke-width="0.4" stroke-miterlimit="22.9256"/><polygon points="55.72,46.88 57.18,46.88 57.18,74.26 55.72,74.26" clip-rule="evenodd" fill="#2b2a29" fill-rule="evenodd" stroke="#2b2a29" stroke-width="0.4" stroke-miterlimit="22.9256"/><polygon points="67.12,50.85 68.58,50.85 68.58,74.26 67.12,74.26" clip-rule="evenodd" fill="#2b2a29" fill-rule="evenodd" stroke="#2b2a29" stroke-width="0.4" stroke-miterlimit="22.9256"/><polygon points="80.12,57.2 81.58,57.2 81.58,74.26 80.12,74.26" clip-rule="evenodd" fill="#2b2a29" fill-rule="evenodd" stroke="#2b2a29" stroke-width="0.4" stroke-miterlimit="22.9256"/><polygon points="91.52,62.09 92.98,62.09 92.98,74.26 91.52,74.26" clip-rule="evenodd" fill="#2b2a29" fill-rule="evenodd" stroke="#2b2a29" stroke-width="0.4" stroke-miterlimit="22.9256"/><polygon points="103.32,67.52 104.78,67.52 104.78,74.26 103.32,74.26" clip-rule="evenodd" fill="#2b2a29" fill-rule="evenodd" stroke="#2b2a29" stroke-width="0.4" stroke-miterlimit="22.9256"/><path d="M99.06,32.99h-4.43l4.52-21.54h8.74c1.55,0,2.78.18,3.69.55.9.36,1.62.97,2.15,1.82.52.85.79,1.86.79,3.03c0,1.09-.21,2.15-.63,3.18s-.94,1.85-1.55,2.47c-.61.61-1.27,1.08-1.98,1.4-.7.32-1.65.56-2.85.73-.69.09-1.99.14-3.9.14h-2.83l-1.72,8.22Zm2.47-11.83h1.37c2.33,0,3.89-.14,4.67-.43.79-.29,1.4-.76,1.85-1.4s.68-1.35.68-2.12c0-.51-.12-.94-.35-1.27s-.55-.57-.97-.72c-.41-.15-1.34-.22-2.78-.22h-3.17l-1.3,6.16Z" clip-rule="evenodd" fill="#2b2a29"/></g></svg>
