<svg id="eHnBVIGg4P31" xmlns="http://www.w3.org/2000/svg" xmlns:xlink="http://www.w3.org/1999/xlink" viewBox="0 0 1181 2362" shape-rendering="geometricPrecision" text-rendering="geometricPrecision"><g clip-rule="evenodd"><g clip-rule="evenodd"><g clip-rule="evenodd"><line x1="677.83" y1="409.16" x2="677.83" y2="72.38" clip-rule="evenodd" fill="none" fill-rule="evenodd" stroke="#2b2a29" stroke-width="16.67" stroke-linecap="round" stroke-linejoin="bevel" stroke-miterlimit="22.9256"/><line x1="677.83" y1="409.16" x2="706.95" y2="301.25" clip-rule="evenodd" fill="none" fill-rule="evenodd" stroke="#2b2a29" stroke-width="16.67" stroke-linecap="round" stroke-linejoin="bevel" stroke-miterlimit="22.9256"/><line x1="677.83" y1="409.16" x2="648.71" y2="301.25" clip-rule="evenodd" fill="none" fill-rule="evenodd" stroke="#2b2a29" stroke-width="16.67" stroke-linecap="round" stroke-linejoin="bevel" stroke-miterlimit="22.9256"/></g><g clip-rule="evenodd"><path d="M782.93,54.86c-3.11,8.88-6.22,17.75-8.33,25.95-2.11,8.19-3.23,15.7-5.4,25.92s-5.4,23.14-7.92,37.58-4.33,30.38-6.14,46.33" clip-rule="evenodd" fill="none" fill-rule="evenodd" stroke="#2b2a29" stroke-width="25" stroke-linecap="round" stroke-linejoin="bevel" stroke-miterlimit="22.9256"/><path d="M782.93,54.86c10.72,1.03,21.45,2.07,30.47,6.57c9.01,4.51,16.32,12.49,17.82,22.47s-2.81,21.97-10.76,29.85c-7.94,7.87-19.52,11.65-29.53,13.7s-18.45,2.38-22.64,2.45c-4.2.06-4.16-.14-4.12-.35" clip-rule="evenodd" fill="none" fill-rule="evenodd" stroke="#2b2a29" stroke-width="25" stroke-linecap="round" stroke-miterlimit="22.9256"/></g><line x1="508.19" y1="394.86" x2="644.65" y2="483.52" clip-rule="evenodd" fill="none" fill-rule="evenodd" stroke="#2b2a29" stroke-width="12.5" stroke-linecap="round" stroke-linejoin="bevel" stroke-miterlimit="22.9256"/><line x1="644.65" y1="522.87" x2="508.19" y2="611.53" clip-rule="evenodd" fill="none" fill-rule="evenodd" stroke="#2b2a29" stroke-width="12.5" stroke-linecap="round" stroke-linejoin="bevel" stroke-miterlimit="22.9256"/><line x1="508.19" y1="611.53" x2="508.19" y2="394.86" clip-rule="evenodd" fill="none" fill-rule="evenodd" stroke="#2b2a29" stroke-width="12.5" stroke-linecap="round" stroke-linejoin="bevel" stroke-miterlimit="22.9256"/><path d="M711.05,503.19c0-19.94-16.17-36.11-36.11-36.11-19.95,0-36.12,16.17-36.12,36.11c0,19.95,16.17,36.12,36.12,36.12c19.94,0,36.11-16.17,36.11-36.12Z" clip-rule="evenodd" fill="none" fill-rule="evenodd" stroke="#2b2a29" stroke-width="12.5" stroke-linecap="round" stroke-linejoin="bevel" stroke-miterlimit="22.9256"/><line x1="674.94" y1="539.3" x2="674.94" y2="2004.96" clip-rule="evenodd" fill="none" fill-rule="evenodd" stroke="#2b2a29" stroke-width="33.33" stroke-linecap="round" stroke-linejoin="bevel" stroke-miterlimit="22.9256"/><line x1="783.27" y1="2207.82" x2="566.6" y2="2207.82" clip-rule="evenodd" fill="none" fill-rule="evenodd" stroke="#2b2a29" stroke-width="12.5" stroke-linecap="round" stroke-linejoin="bevel" stroke-miterlimit="22.9256"/><line x1="472.71" y1="2207.82" x2="877.16" y2="2207.82" clip-rule="evenodd" fill="none" fill-rule="evenodd" stroke="#2b2a29" stroke-width="33.33" stroke-linecap="round" stroke-linejoin="bevel" stroke-miterlimit="22.9256"/><line x1="404.05" y1="300.97" x2="404.05" y2="705.42" clip-rule="evenodd" fill="none" fill-rule="evenodd" stroke="#2b2a29" stroke-width="33.33" stroke-linecap="round" stroke-linejoin="bevel" stroke-miterlimit="22.9256"/><path d="M508.19,430.97c0-23.97-19.44-43.4-43.4-43.4-23.97,0-43.4,19.43-43.4,43.4s19.43,43.4,43.4,43.4c23.96,0,43.4-19.43,43.4-43.4Z" clip-rule="evenodd" fill="none" fill-rule="evenodd" stroke="#2b2a29" stroke-width="12.5" stroke-linecap="round" stroke-linejoin="bevel" stroke-miterlimit="22.9256"/><path d="M508.19,575.42c0-23.97-19.44-43.4-43.4-43.4-23.97,0-43.4,19.43-43.4,43.4s19.43,43.4,43.4,43.4c23.96,0,43.4-19.43,43.4-43.4Z" clip-rule="evenodd" fill="none" fill-rule="evenodd" stroke="#2b2a29" stroke-width="12.5" stroke-linecap="round" stroke-linejoin="bevel" stroke-miterlimit="22.9256"/><line x1="302.94" y1="705.42" x2="404.05" y2="604.31" clip-rule="evenodd" fill="none" fill-rule="evenodd" stroke="#2b2a29" stroke-width="12.5" stroke-linecap="round" stroke-linejoin="bevel" stroke-miterlimit="22.9256"/><line x1="302.94" y1="603.28" x2="404.05" y2="502.17" clip-rule="evenodd" fill="none" fill-rule="evenodd" stroke="#2b2a29" stroke-width="12.5" stroke-linecap="round" stroke-linejoin="bevel" stroke-miterlimit="22.9256"/><line x1="302.94" y1="501.14" x2="404.05" y2="400.03" clip-rule="evenodd" fill="none" fill-rule="evenodd" stroke="#2b2a29" stroke-width="12.5" stroke-linecap="round" stroke-linejoin="bevel" stroke-miterlimit="22.9256"/><line x1="302.94" y1="399" x2="400.97" y2="300.97" clip-rule="evenodd" fill="none" fill-rule="evenodd" stroke="#2b2a29" stroke-width="12.5" stroke-linecap="round" stroke-linejoin="bevel" stroke-miterlimit="22.9256"/><line x1="779.13" y1="2308.93" x2="877.16" y2="2210.9" clip-rule="evenodd" fill="none" fill-rule="evenodd" stroke="#2b2a29" stroke-width="12.5" stroke-linecap="round" stroke-linejoin="bevel" stroke-miterlimit="22.9256"/><line x1="676.99" y1="2308.93" x2="778.1" y2="2207.82" clip-rule="evenodd" fill="none" fill-rule="evenodd" stroke="#2b2a29" stroke-width="12.5" stroke-linecap="round" stroke-linejoin="bevel" stroke-miterlimit="22.9256"/><line x1="574.85" y1="2308.93" x2="675.96" y2="2207.82" clip-rule="evenodd" fill="none" fill-rule="evenodd" stroke="#2b2a29" stroke-width="12.5" stroke-linecap="round" stroke-linejoin="bevel" stroke-miterlimit="22.9256"/><line x1="472.71" y1="2308.93" x2="573.82" y2="2207.82" clip-rule="evenodd" fill="none" fill-rule="evenodd" stroke="#2b2a29" stroke-width="12.5" stroke-linecap="round" stroke-linejoin="bevel" stroke-miterlimit="22.9256"/><line x1="674.94" y1="2004.96" x2="674.94" y2="2207.82" clip-rule="evenodd" fill="none" fill-rule="evenodd" stroke="#2b2a29" stroke-width="33.33" stroke-linecap="round" stroke-linejoin="bevel" stroke-miterlimit="22.9256"/></g></g></svg>
