<svg id="eOhwPK3jU8J1" xmlns="http://www.w3.org/2000/svg" xmlns:xlink="http://www.w3.org/1999/xlink" viewBox="0 0 1181 2362" shape-rendering="geometricPrecision" text-rendering="geometricPrecision"><g clip-rule="evenodd"><g clip-rule="evenodd"><g clip-rule="evenodd"><line x1="672.73" y1="394.96" x2="672.73" y2="71.2" clip-rule="evenodd" fill="none" fill-rule="evenodd" stroke="#2b2a29" stroke-width="16.67" stroke-linecap="round" stroke-linejoin="bevel" stroke-miterlimit="22.9256"/><line x1="672.73" y1="394.96" x2="700.72" y2="291.22" clip-rule="evenodd" fill="none" fill-rule="evenodd" stroke="#2b2a29" stroke-width="16.67" stroke-linecap="round" stroke-linejoin="bevel" stroke-miterlimit="22.9256"/><line x1="672.73" y1="394.96" x2="644.73" y2="291.22" clip-rule="evenodd" fill="none" fill-rule="evenodd" stroke="#2b2a29" stroke-width="16.67" stroke-linecap="round" stroke-linejoin="bevel" stroke-miterlimit="22.9256"/></g><g clip-rule="evenodd"><path d="M773.76,54.36c-2.99,8.53-5.98,17.06-8.01,24.94s-3.1,15.09-5.19,24.92c-2.09,9.82-5.19,22.25-7.61,36.13-2.43,13.88-4.17,29.21-5.91,44.53" clip-rule="evenodd" fill="none" fill-rule="evenodd" stroke="#2b2a29" stroke-width="25" stroke-linecap="round" stroke-linejoin="bevel" stroke-miterlimit="22.9256"/><path d="M773.76,54.36c10.31.99,20.62,1.98,29.29,6.32c8.67,4.33,15.69,12,17.13,21.59c1.44,9.6-2.7,21.12-10.34,28.7-7.64,7.57-18.77,11.19-28.39,13.17-9.62,1.97-17.73,2.29-21.77,2.35-4.03.06-3.99-.13-3.95-.33" clip-rule="evenodd" fill="none" fill-rule="evenodd" stroke="#2b2a29" stroke-width="25" stroke-linecap="round" stroke-miterlimit="22.9256"/></g><line x1="506.12" y1="364.25" x2="644.81" y2="454.35" clip-rule="evenodd" fill="none" fill-rule="evenodd" stroke="#2b2a29" stroke-width="12.5" stroke-linecap="round" stroke-linejoin="bevel" stroke-miterlimit="22.9256"/><line x1="644.81" y1="494.34" x2="506.12" y2="584.44" clip-rule="evenodd" fill="none" fill-rule="evenodd" stroke="#2b2a29" stroke-width="12.5" stroke-linecap="round" stroke-linejoin="bevel" stroke-miterlimit="22.9256"/><line x1="506.12" y1="584.44" x2="506.12" y2="364.25" clip-rule="evenodd" fill="none" fill-rule="evenodd" stroke="#2b2a29" stroke-width="12.5" stroke-linecap="round" stroke-linejoin="bevel" stroke-miterlimit="22.9256"/><path d="M712.28,474.34c0-20.26-16.43-36.69-36.7-36.69s-36.7,16.43-36.7,36.69c0,20.27,16.43,36.7,36.7,36.7s36.7-16.43,36.7-36.7Z" clip-rule="evenodd" fill="none" fill-rule="evenodd" stroke="#2b2a29" stroke-width="12.5" stroke-linecap="round" stroke-linejoin="bevel" stroke-miterlimit="22.9256"/><line x1="675.58" y1="1555.27" x2="675.58" y2="2000.52" clip-rule="evenodd" fill="none" fill-rule="evenodd" stroke="#2b2a29" stroke-width="33.33" stroke-linecap="round" stroke-linejoin="bevel" stroke-miterlimit="22.9256"/><line x1="565.48" y1="2206.68" x2="655.59" y2="2067.99" clip-rule="evenodd" fill="none" fill-rule="evenodd" stroke="#2b2a29" stroke-width="12.5" stroke-linecap="round" stroke-linejoin="bevel" stroke-miterlimit="22.9256"/><path d="M712.28,2037.22c0-20.27-16.43-36.7-36.7-36.7s-36.7,16.43-36.7,36.7s16.43,36.7,36.7,36.7s36.7-16.43,36.7-36.7Z" clip-rule="evenodd" fill="none" fill-rule="evenodd" stroke="#2b2a29" stroke-width="12.5" stroke-linecap="round" stroke-linejoin="bevel" stroke-miterlimit="22.9256"/><line x1="695.57" y1="2067.99" x2="785.68" y2="2206.68" clip-rule="evenodd" fill="none" fill-rule="evenodd" stroke="#2b2a29" stroke-width="12.5" stroke-linecap="round" stroke-linejoin="bevel" stroke-miterlimit="22.9256"/><line x1="785.68" y1="2206.68" x2="565.48" y2="2206.68" clip-rule="evenodd" fill="none" fill-rule="evenodd" stroke="#2b2a29" stroke-width="12.5" stroke-linecap="round" stroke-linejoin="bevel" stroke-miterlimit="22.9256"/><line x1="470.07" y1="2206.68" x2="881.1" y2="2206.68" clip-rule="evenodd" fill="none" fill-rule="evenodd" stroke="#2b2a29" stroke-width="33.33" stroke-linecap="round" stroke-linejoin="bevel" stroke-miterlimit="22.9256"/><line x1="401.76" y1="268.83" x2="401.76" y2="679.86" clip-rule="evenodd" fill="none" fill-rule="evenodd" stroke="#2b2a29" stroke-width="33.33" stroke-linecap="round" stroke-linejoin="bevel" stroke-miterlimit="22.9256"/><path d="M506.12,400.95c0-24.36-19.75-44.11-44.1-44.11-24.36,0-44.11,19.75-44.11,44.11c0,24.35,19.75,44.1,44.11,44.1c24.35,0,44.1-19.75,44.1-44.1Z" clip-rule="evenodd" fill="none" fill-rule="evenodd" stroke="#2b2a29" stroke-width="12.5" stroke-linecap="round" stroke-linejoin="bevel" stroke-miterlimit="22.9256"/><path d="M506.12,547.74c0-24.36-19.75-44.1-44.1-44.1-24.36,0-44.11,19.74-44.11,44.1s19.75,44.11,44.11,44.11c24.35,0,44.1-19.75,44.1-44.11Z" clip-rule="evenodd" fill="none" fill-rule="evenodd" stroke="#2b2a29" stroke-width="12.5" stroke-linecap="round" stroke-linejoin="bevel" stroke-miterlimit="22.9256"/><line x1="299.01" y1="679.86" x2="401.76" y2="577.1" clip-rule="evenodd" fill="none" fill-rule="evenodd" stroke="#2b2a29" stroke-width="12.5" stroke-linecap="round" stroke-linejoin="bevel" stroke-miterlimit="22.9256"/><line x1="299.01" y1="576.06" x2="401.76" y2="473.3" clip-rule="evenodd" fill="none" fill-rule="evenodd" stroke="#2b2a29" stroke-width="12.5" stroke-linecap="round" stroke-linejoin="bevel" stroke-miterlimit="22.9256"/><line x1="299.01" y1="472.26" x2="401.76" y2="369.5" clip-rule="evenodd" fill="none" fill-rule="evenodd" stroke="#2b2a29" stroke-width="12.5" stroke-linecap="round" stroke-linejoin="bevel" stroke-miterlimit="22.9256"/><line x1="299.01" y1="368.46" x2="398.63" y2="268.83" clip-rule="evenodd" fill="none" fill-rule="evenodd" stroke="#2b2a29" stroke-width="12.5" stroke-linecap="round" stroke-linejoin="bevel" stroke-miterlimit="22.9256"/><line x1="781.47" y1="2309.44" x2="881.1" y2="2209.81" clip-rule="evenodd" fill="none" fill-rule="evenodd" stroke="#2b2a29" stroke-width="12.5" stroke-linecap="round" stroke-linejoin="bevel" stroke-miterlimit="22.9256"/><line x1="677.67" y1="2309.44" x2="780.42" y2="2206.68" clip-rule="evenodd" fill="none" fill-rule="evenodd" stroke="#2b2a29" stroke-width="12.5" stroke-linecap="round" stroke-linejoin="bevel" stroke-miterlimit="22.9256"/><line x1="573.87" y1="2309.44" x2="676.62" y2="2206.68" clip-rule="evenodd" fill="none" fill-rule="evenodd" stroke="#2b2a29" stroke-width="12.5" stroke-linecap="round" stroke-linejoin="bevel" stroke-miterlimit="22.9256"/><line x1="470.07" y1="2309.44" x2="572.82" y2="2206.68" clip-rule="evenodd" fill="none" fill-rule="evenodd" stroke="#2b2a29" stroke-width="12.5" stroke-linecap="round" stroke-linejoin="bevel" stroke-miterlimit="22.9256"/><line x1="299.01" y1="1199.24" x2="401.76" y2="1096.49" clip-rule="evenodd" fill="none" fill-rule="evenodd" stroke="#2b2a29" stroke-width="12.5" stroke-linecap="round" stroke-linejoin="bevel" stroke-miterlimit="22.9256"/><line x1="299.01" y1="1095.44" x2="401.76" y2="992.69" clip-rule="evenodd" fill="none" fill-rule="evenodd" stroke="#2b2a29" stroke-width="12.5" stroke-linecap="round" stroke-linejoin="bevel" stroke-miterlimit="22.9256"/><line x1="299.01" y1="991.64" x2="401.76" y2="888.89" clip-rule="evenodd" fill="none" fill-rule="evenodd" stroke="#2b2a29" stroke-width="12.5" stroke-linecap="round" stroke-linejoin="bevel" stroke-miterlimit="22.9256"/><line x1="299.01" y1="887.84" x2="398.63" y2="788.22" clip-rule="evenodd" fill="none" fill-rule="evenodd" stroke="#2b2a29" stroke-width="12.5" stroke-linecap="round" stroke-linejoin="bevel" stroke-miterlimit="22.9256"/><line x1="506.12" y1="883.63" x2="644.81" y2="973.74" clip-rule="evenodd" fill="none" fill-rule="evenodd" stroke="#2b2a29" stroke-width="12.5" stroke-linecap="round" stroke-linejoin="bevel" stroke-miterlimit="22.9256"/><path d="M506.12,1067.13c0-24.36-19.75-44.11-44.1-44.11-24.36,0-44.11,19.75-44.11,44.11s19.75,44.1,44.11,44.1c24.35,0,44.1-19.74,44.1-44.1Z" clip-rule="evenodd" fill="none" fill-rule="evenodd" stroke="#2b2a29" stroke-width="12.5" stroke-linecap="round" stroke-linejoin="bevel" stroke-miterlimit="22.9256"/><line x1="644.81" y1="1013.72" x2="506.12" y2="1103.83" clip-rule="evenodd" fill="none" fill-rule="evenodd" stroke="#2b2a29" stroke-width="12.5" stroke-linecap="round" stroke-linejoin="bevel" stroke-miterlimit="22.9256"/><line x1="506.12" y1="1103.83" x2="506.12" y2="883.63" clip-rule="evenodd" fill="none" fill-rule="evenodd" stroke="#2b2a29" stroke-width="12.5" stroke-linecap="round" stroke-linejoin="bevel" stroke-miterlimit="22.9256"/><path d="M712.28,993.73c0-20.27-16.43-36.7-36.7-36.7s-36.7,16.43-36.7,36.7s16.43,36.7,36.7,36.7s36.7-16.43,36.7-36.7Z" clip-rule="evenodd" fill="none" fill-rule="evenodd" stroke="#2b2a29" stroke-width="16.67" stroke-linecap="round" stroke-linejoin="bevel" stroke-miterlimit="22.9256"/><path d="M506.12,920.33c0-24.36-19.75-44.1-44.1-44.1-24.36,0-44.11,19.74-44.11,44.1s19.75,44.11,44.11,44.11c24.35,0,44.1-19.75,44.1-44.11Z" clip-rule="evenodd" fill="none" fill-rule="evenodd" stroke="#2b2a29" stroke-width="12.5" stroke-linecap="round" stroke-linejoin="bevel" stroke-miterlimit="22.9256"/><line x1="401.76" y1="788.22" x2="401.76" y2="1199.24" clip-rule="evenodd" fill="none" fill-rule="evenodd" stroke="#2b2a29" stroke-width="33.33" stroke-linecap="round" stroke-linejoin="bevel" stroke-miterlimit="22.9256"/><line x1="299.01" y1="1724.09" x2="401.76" y2="1621.33" clip-rule="evenodd" fill="none" fill-rule="evenodd" stroke="#2b2a29" stroke-width="12.5" stroke-linecap="round" stroke-linejoin="bevel" stroke-miterlimit="22.9256"/><line x1="299.01" y1="1620.29" x2="401.76" y2="1517.53" clip-rule="evenodd" fill="none" fill-rule="evenodd" stroke="#2b2a29" stroke-width="12.5" stroke-linecap="round" stroke-linejoin="bevel" stroke-miterlimit="22.9256"/><line x1="299.01" y1="1516.49" x2="401.76" y2="1413.73" clip-rule="evenodd" fill="none" fill-rule="evenodd" stroke="#2b2a29" stroke-width="12.5" stroke-linecap="round" stroke-linejoin="bevel" stroke-miterlimit="22.9256"/><line x1="299.01" y1="1412.69" x2="398.63" y2="1313.06" clip-rule="evenodd" fill="none" fill-rule="evenodd" stroke="#2b2a29" stroke-width="12.5" stroke-linecap="round" stroke-linejoin="bevel" stroke-miterlimit="22.9256"/><line x1="644.81" y1="1538.57" x2="506.12" y2="1628.67" clip-rule="evenodd" fill="none" fill-rule="evenodd" stroke="#2b2a29" stroke-width="12.5" stroke-linecap="round" stroke-linejoin="bevel" stroke-miterlimit="22.9256"/><path d="M506.12,1591.97c0-24.35-19.75-44.1-44.1-44.1-24.36,0-44.11,19.75-44.11,44.1c0,24.36,19.75,44.11,44.11,44.11c24.35,0,44.1-19.75,44.1-44.11Z" clip-rule="evenodd" fill="none" fill-rule="evenodd" stroke="#2b2a29" stroke-width="12.5" stroke-linecap="round" stroke-linejoin="bevel" stroke-miterlimit="22.9256"/><line x1="506.12" y1="1628.67" x2="506.12" y2="1408.48" clip-rule="evenodd" fill="none" fill-rule="evenodd" stroke="#2b2a29" stroke-width="12.5" stroke-linecap="round" stroke-linejoin="bevel" stroke-miterlimit="22.9256"/><path d="M712.28,1518.58c0-20.27-16.43-36.7-36.7-36.7s-36.7,16.43-36.7,36.7c0,20.26,16.43,36.69,36.7,36.69s36.7-16.43,36.7-36.69Z" clip-rule="evenodd" fill="none" fill-rule="evenodd" stroke="#2b2a29" stroke-width="12.5" stroke-linecap="round" stroke-linejoin="bevel" stroke-miterlimit="22.9256"/><line x1="401.76" y1="1313.06" x2="401.76" y2="1724.09" clip-rule="evenodd" fill="none" fill-rule="evenodd" stroke="#2b2a29" stroke-width="33.33" stroke-linecap="round" stroke-linejoin="bevel" stroke-miterlimit="22.9256"/><line x1="506.12" y1="1408.48" x2="644.81" y2="1498.58" clip-rule="evenodd" fill="none" fill-rule="evenodd" stroke="#2b2a29" stroke-width="12.5" stroke-linecap="round" stroke-linejoin="bevel" stroke-miterlimit="22.9256"/><path d="M506.12,1445.18c0-24.36-19.75-44.11-44.1-44.11-24.36,0-44.11,19.75-44.11,44.11s19.75,44.1,44.11,44.1c24.35,0,44.1-19.74,44.1-44.1Z" clip-rule="evenodd" fill="none" fill-rule="evenodd" stroke="#2b2a29" stroke-width="12.5" stroke-linecap="round" stroke-linejoin="bevel" stroke-miterlimit="22.9256"/><line x1="675.58" y1="511.04" x2="675.58" y2="957.03" clip-rule="evenodd" fill="none" fill-rule="evenodd" stroke="#2b2a29" stroke-width="33.33" stroke-linecap="round" stroke-linejoin="bevel" stroke-miterlimit="22.9256"/><line x1="675.58" y1="1030.43" x2="675.58" y2="1481.88" clip-rule="evenodd" fill="none" fill-rule="evenodd" stroke="#2b2a29" stroke-width="33.33" stroke-linecap="round" stroke-linejoin="bevel" stroke-miterlimit="22.9256"/><line x1="658.2" y1="1550.9" x2="655.21" y2="1557.61" clip-rule="evenodd" fill="none" fill-rule="evenodd" stroke="#2b2a29" stroke-width="16.67" stroke-linecap="round" stroke-linejoin="bevel" stroke-miterlimit="22.9256"/><line x1="649.23" y1="1571.02" x2="643.24" y2="1584.44" clip-rule="evenodd" fill="none" fill-rule="evenodd" stroke="#2b2a29" stroke-width="16.67" stroke-linecap="round" stroke-linejoin="bevel" stroke-miterlimit="22.9256"/><line x1="638.13" y1="1598.21" x2="633.18" y2="1612.04" clip-rule="evenodd" fill="none" fill-rule="evenodd" stroke="#2b2a29" stroke-width="16.67" stroke-linecap="round" stroke-linejoin="bevel" stroke-miterlimit="22.9256"/><line x1="628.42" y1="1625.93" x2="624.54" y2="1640.1" clip-rule="evenodd" fill="none" fill-rule="evenodd" stroke="#2b2a29" stroke-width="16.67" stroke-linecap="round" stroke-linejoin="bevel" stroke-miterlimit="22.9256"/><polyline points="620.67,1654.28 618.73,1661.36 617.34,1668.57" clip-rule="evenodd" fill="none" fill-rule="evenodd" stroke="#2b2a29" stroke-width="16.67" stroke-linecap="round" stroke-linejoin="bevel" stroke-miterlimit="22.9256"/><line x1="614.55" y1="1683" x2="611.77" y2="1697.42" clip-rule="evenodd" fill="none" fill-rule="evenodd" stroke="#2b2a29" stroke-width="16.67" stroke-linecap="round" stroke-linejoin="bevel" stroke-miterlimit="22.9256"/><line x1="609.91" y1="1711.99" x2="608.23" y2="1726.59" clip-rule="evenodd" fill="none" fill-rule="evenodd" stroke="#2b2a29" stroke-width="16.67" stroke-linecap="round" stroke-linejoin="bevel" stroke-miterlimit="22.9256"/><line x1="606.74" y1="1741.19" x2="606.18" y2="1755.88" clip-rule="evenodd" fill="none" fill-rule="evenodd" stroke="#2b2a29" stroke-width="16.67" stroke-linecap="round" stroke-linejoin="bevel" stroke-miterlimit="22.9256"/><polyline points="605.62,1770.56 605.34,1777.9 605.62,1785.24" clip-rule="evenodd" fill="none" fill-rule="evenodd" stroke="#2b2a29" stroke-width="16.67" stroke-linecap="round" stroke-linejoin="bevel" stroke-miterlimit="22.9256"/><line x1="606.18" y1="1799.92" x2="606.74" y2="1814.6" clip-rule="evenodd" fill="none" fill-rule="evenodd" stroke="#2b2a29" stroke-width="16.67" stroke-linecap="round" stroke-linejoin="bevel" stroke-miterlimit="22.9256"/><line x1="608.23" y1="1829.21" x2="609.91" y2="1843.8" clip-rule="evenodd" fill="none" fill-rule="evenodd" stroke="#2b2a29" stroke-width="16.67" stroke-linecap="round" stroke-linejoin="bevel" stroke-miterlimit="22.9256"/><line x1="611.77" y1="1858.37" x2="614.55" y2="1872.8" clip-rule="evenodd" fill="none" fill-rule="evenodd" stroke="#2b2a29" stroke-width="16.67" stroke-linecap="round" stroke-linejoin="bevel" stroke-miterlimit="22.9256"/><polyline points="617.34,1887.22 618.73,1894.43 620.67,1901.52" clip-rule="evenodd" fill="none" fill-rule="evenodd" stroke="#2b2a29" stroke-width="16.67" stroke-linecap="round" stroke-linejoin="bevel" stroke-miterlimit="22.9256"/><line x1="624.54" y1="1915.69" x2="628.42" y2="1929.86" clip-rule="evenodd" fill="none" fill-rule="evenodd" stroke="#2b2a29" stroke-width="16.67" stroke-linecap="round" stroke-linejoin="bevel" stroke-miterlimit="22.9256"/><line x1="633.18" y1="1943.75" x2="638.13" y2="1957.59" clip-rule="evenodd" fill="none" fill-rule="evenodd" stroke="#2b2a29" stroke-width="16.67" stroke-linecap="round" stroke-linejoin="bevel" stroke-miterlimit="22.9256"/><line x1="643.24" y1="1971.35" x2="649.23" y2="1984.77" clip-rule="evenodd" fill="none" fill-rule="evenodd" stroke="#2b2a29" stroke-width="16.67" stroke-linecap="round" stroke-linejoin="bevel" stroke-miterlimit="22.9256"/><line x1="655.21" y1="1998.19" x2="658.2" y2="2004.89" clip-rule="evenodd" fill="none" fill-rule="evenodd" stroke="#2b2a29" stroke-width="16.67" stroke-linecap="round" stroke-linejoin="bevel" stroke-miterlimit="22.9256"/><line x1="693.19" y1="1486.38" x2="696.27" y2="1479.58" clip-rule="evenodd" fill="none" fill-rule="evenodd" stroke="#2b2a29" stroke-width="16.67" stroke-linecap="round" stroke-linejoin="bevel" stroke-miterlimit="22.9256"/><line x1="702.43" y1="1466" x2="708.59" y2="1452.42" clip-rule="evenodd" fill="none" fill-rule="evenodd" stroke="#2b2a29" stroke-width="16.67" stroke-linecap="round" stroke-linejoin="bevel" stroke-miterlimit="22.9256"/><line x1="713.87" y1="1438.47" x2="718.96" y2="1424.45" clip-rule="evenodd" fill="none" fill-rule="evenodd" stroke="#2b2a29" stroke-width="16.67" stroke-linecap="round" stroke-linejoin="bevel" stroke-miterlimit="22.9256"/><line x1="723.87" y1="1410.37" x2="727.86" y2="1396" clip-rule="evenodd" fill="none" fill-rule="evenodd" stroke="#2b2a29" stroke-width="16.67" stroke-linecap="round" stroke-linejoin="bevel" stroke-miterlimit="22.9256"/><polyline points="731.86,1381.63 733.85,1374.44 735.29,1367.12" clip-rule="evenodd" fill="none" fill-rule="evenodd" stroke="#2b2a29" stroke-width="16.67" stroke-linecap="round" stroke-linejoin="bevel" stroke-miterlimit="22.9256"/><line x1="738.16" y1="1352.48" x2="741.03" y2="1337.85" clip-rule="evenodd" fill="none" fill-rule="evenodd" stroke="#2b2a29" stroke-width="16.67" stroke-linecap="round" stroke-linejoin="bevel" stroke-miterlimit="22.9256"/><line x1="742.95" y1="1323.06" x2="744.67" y2="1308.25" clip-rule="evenodd" fill="none" fill-rule="evenodd" stroke="#2b2a29" stroke-width="16.67" stroke-linecap="round" stroke-linejoin="bevel" stroke-miterlimit="22.9256"/><line x1="746.21" y1="1293.42" x2="746.79" y2="1278.51" clip-rule="evenodd" fill="none" fill-rule="evenodd" stroke="#2b2a29" stroke-width="16.67" stroke-linecap="round" stroke-linejoin="bevel" stroke-miterlimit="22.9256"/><polyline points="747.37,1263.61 747.65,1256.15 747.37,1248.7" clip-rule="evenodd" fill="none" fill-rule="evenodd" stroke="#2b2a29" stroke-width="16.67" stroke-linecap="round" stroke-linejoin="bevel" stroke-miterlimit="22.9256"/><line x1="746.79" y1="1233.8" x2="746.21" y2="1218.89" clip-rule="evenodd" fill="none" fill-rule="evenodd" stroke="#2b2a29" stroke-width="16.67" stroke-linecap="round" stroke-linejoin="bevel" stroke-miterlimit="22.9256"/><line x1="744.67" y1="1204.06" x2="742.95" y2="1189.24" clip-rule="evenodd" fill="none" fill-rule="evenodd" stroke="#2b2a29" stroke-width="16.67" stroke-linecap="round" stroke-linejoin="bevel" stroke-miterlimit="22.9256"/><line x1="741.03" y1="1174.46" x2="738.16" y2="1159.82" clip-rule="evenodd" fill="none" fill-rule="evenodd" stroke="#2b2a29" stroke-width="16.67" stroke-linecap="round" stroke-linejoin="bevel" stroke-miterlimit="22.9256"/><polyline points="735.29,1145.18 733.85,1137.87 731.86,1130.68" clip-rule="evenodd" fill="none" fill-rule="evenodd" stroke="#2b2a29" stroke-width="16.67" stroke-linecap="round" stroke-linejoin="bevel" stroke-miterlimit="22.9256"/><line x1="727.86" y1="1116.31" x2="723.87" y2="1101.93" clip-rule="evenodd" fill="none" fill-rule="evenodd" stroke="#2b2a29" stroke-width="16.67" stroke-linecap="round" stroke-linejoin="bevel" stroke-miterlimit="22.9256"/><line x1="718.96" y1="1087.86" x2="713.87" y2="1073.84" clip-rule="evenodd" fill="none" fill-rule="evenodd" stroke="#2b2a29" stroke-width="16.67" stroke-linecap="round" stroke-linejoin="bevel" stroke-miterlimit="22.9256"/><line x1="708.59" y1="1059.89" x2="702.43" y2="1046.31" clip-rule="evenodd" fill="none" fill-rule="evenodd" stroke="#2b2a29" stroke-width="16.67" stroke-linecap="round" stroke-linejoin="bevel" stroke-miterlimit="22.9256"/><line x1="696.27" y1="1032.72" x2="693.19" y2="1025.93" clip-rule="evenodd" fill="none" fill-rule="evenodd" stroke="#2b2a29" stroke-width="16.67" stroke-linecap="round" stroke-linejoin="bevel" stroke-miterlimit="22.9256"/><line x1="658.18" y1="506.65" x2="655.17" y2="513.37" clip-rule="evenodd" fill="none" fill-rule="evenodd" stroke="#2b2a29" stroke-width="16.67" stroke-linecap="round" stroke-linejoin="bevel" stroke-miterlimit="22.9256"/><line x1="649.17" y1="526.81" x2="643.16" y2="540.24" clip-rule="evenodd" fill="none" fill-rule="evenodd" stroke="#2b2a29" stroke-width="16.67" stroke-linecap="round" stroke-linejoin="bevel" stroke-miterlimit="22.9256"/><line x1="638.03" y1="554.03" x2="633.06" y2="567.89" clip-rule="evenodd" fill="none" fill-rule="evenodd" stroke="#2b2a29" stroke-width="16.67" stroke-linecap="round" stroke-linejoin="bevel" stroke-miterlimit="22.9256"/><line x1="628.28" y1="581.8" x2="624.39" y2="596" clip-rule="evenodd" fill="none" fill-rule="evenodd" stroke="#2b2a29" stroke-width="16.67" stroke-linecap="round" stroke-linejoin="bevel" stroke-miterlimit="22.9256"/><polyline points="620.5,610.19 618.56,617.29 617.16,624.52" clip-rule="evenodd" fill="none" fill-rule="evenodd" stroke="#2b2a29" stroke-width="16.67" stroke-linecap="round" stroke-linejoin="bevel" stroke-miterlimit="22.9256"/><line x1="614.37" y1="638.97" x2="611.57" y2="653.42" clip-rule="evenodd" fill="none" fill-rule="evenodd" stroke="#2b2a29" stroke-width="16.67" stroke-linecap="round" stroke-linejoin="bevel" stroke-miterlimit="22.9256"/><line x1="609.7" y1="668.01" x2="608.02" y2="682.63" clip-rule="evenodd" fill="none" fill-rule="evenodd" stroke="#2b2a29" stroke-width="16.67" stroke-linecap="round" stroke-linejoin="bevel" stroke-miterlimit="22.9256"/><line x1="606.52" y1="697.27" x2="605.96" y2="711.98" clip-rule="evenodd" fill="none" fill-rule="evenodd" stroke="#2b2a29" stroke-width="16.67" stroke-linecap="round" stroke-linejoin="bevel" stroke-miterlimit="22.9256"/><polyline points="605.4,726.68 605.12,734.04 605.4,741.39" clip-rule="evenodd" fill="none" fill-rule="evenodd" stroke="#2b2a29" stroke-width="16.67" stroke-linecap="round" stroke-linejoin="bevel" stroke-miterlimit="22.9256"/><line x1="605.96" y1="756.1" x2="606.52" y2="770.81" clip-rule="evenodd" fill="none" fill-rule="evenodd" stroke="#2b2a29" stroke-width="16.67" stroke-linecap="round" stroke-linejoin="bevel" stroke-miterlimit="22.9256"/><line x1="608.02" y1="785.44" x2="609.7" y2="800.06" clip-rule="evenodd" fill="none" fill-rule="evenodd" stroke="#2b2a29" stroke-width="16.67" stroke-linecap="round" stroke-linejoin="bevel" stroke-miterlimit="22.9256"/><line x1="611.57" y1="814.66" x2="614.37" y2="829.11" clip-rule="evenodd" fill="none" fill-rule="evenodd" stroke="#2b2a29" stroke-width="16.67" stroke-linecap="round" stroke-linejoin="bevel" stroke-miterlimit="22.9256"/><polyline points="617.16,843.56 618.56,850.78 620.5,857.88" clip-rule="evenodd" fill="none" fill-rule="evenodd" stroke="#2b2a29" stroke-width="16.67" stroke-linecap="round" stroke-linejoin="bevel" stroke-miterlimit="22.9256"/><line x1="624.39" y1="872.08" x2="628.28" y2="886.27" clip-rule="evenodd" fill="none" fill-rule="evenodd" stroke="#2b2a29" stroke-width="16.67" stroke-linecap="round" stroke-linejoin="bevel" stroke-miterlimit="22.9256"/><line x1="633.06" y1="900.18" x2="638.03" y2="914.04" clip-rule="evenodd" fill="none" fill-rule="evenodd" stroke="#2b2a29" stroke-width="16.67" stroke-linecap="round" stroke-linejoin="bevel" stroke-miterlimit="22.9256"/><line x1="643.16" y1="927.83" x2="649.17" y2="941.27" clip-rule="evenodd" fill="none" fill-rule="evenodd" stroke="#2b2a29" stroke-width="16.67" stroke-linecap="round" stroke-linejoin="bevel" stroke-miterlimit="22.9256"/><line x1="655.17" y1="954.7" x2="658.18" y2="961.42" clip-rule="evenodd" fill="none" fill-rule="evenodd" stroke="#2b2a29" stroke-width="12.5" stroke-linecap="round" stroke-linejoin="bevel" stroke-miterlimit="22.9256"/></g></g></svg>
