<svg id="efWiV1562Uw1" xmlns="http://www.w3.org/2000/svg" xmlns:xlink="http://www.w3.org/1999/xlink" viewBox="0 0 1181 590.5" shape-rendering="geometricPrecision" text-rendering="geometricPrecision"><g clip-rule="evenodd"><line x1="269.16" y1="102.24" x2="269.16" y2="559.86" clip-rule="evenodd" fill="none" fill-rule="evenodd" stroke="#2b2a29" stroke-width="41.66" stroke-linecap="round" stroke-linejoin="bevel" stroke-miterlimit="22.9256"/><line x1="269.16" y1="331.05" x2="804.78" y2="331.05" clip-rule="evenodd" fill="none" fill-rule="evenodd" stroke="#2b2a29" stroke-width="41.66" stroke-linecap="round" stroke-linejoin="bevel" stroke-miterlimit="22.9256"/><line x1="253.98" y1="559.86" x2="269.16" y2="544.68" clip-rule="evenodd" fill="none" fill-rule="evenodd" stroke="#2b2a29" stroke-width="1.54" stroke-linecap="round" stroke-linejoin="bevel" stroke-miterlimit="22.9256"/><line x1="196.19" y1="559.86" x2="269.16" y2="486.89" clip-rule="evenodd" fill="none" fill-rule="evenodd" stroke="#2b2a29" stroke-width="16.67" stroke-linecap="round" stroke-linejoin="bevel" stroke-miterlimit="22.9256"/><line x1="138.41" y1="559.86" x2="269.16" y2="429.11" clip-rule="evenodd" fill="none" fill-rule="evenodd" stroke="#2b2a29" stroke-width="16.67" stroke-linecap="round" stroke-linejoin="bevel" stroke-miterlimit="22.9256"/><line x1="138.41" y1="502.08" x2="269.16" y2="371.33" clip-rule="evenodd" fill="none" fill-rule="evenodd" stroke="#2b2a29" stroke-width="16.67" stroke-linecap="round" stroke-linejoin="bevel" stroke-miterlimit="22.9256"/><line x1="138.41" y1="444.29" x2="269.16" y2="313.55" clip-rule="evenodd" fill="none" fill-rule="evenodd" stroke="#2b2a29" stroke-width="16.67" stroke-linecap="round" stroke-linejoin="bevel" stroke-miterlimit="22.9256"/><line x1="138.41" y1="386.51" x2="269.16" y2="255.76" clip-rule="evenodd" fill="none" fill-rule="evenodd" stroke="#2b2a29" stroke-width="16.67" stroke-linecap="round" stroke-linejoin="bevel" stroke-miterlimit="22.9256"/><line x1="138.41" y1="328.73" x2="269.16" y2="197.98" clip-rule="evenodd" fill="none" fill-rule="evenodd" stroke="#2b2a29" stroke-width="16.67" stroke-linecap="round" stroke-linejoin="bevel" stroke-miterlimit="22.9256"/><line x1="138.41" y1="270.95" x2="269.16" y2="140.2" clip-rule="evenodd" fill="none" fill-rule="evenodd" stroke="#2b2a29" stroke-width="16.67" stroke-linecap="round" stroke-linejoin="bevel" stroke-miterlimit="22.9256"/><line x1="138.41" y1="213.16" x2="255.56" y2="96.01" clip-rule="evenodd" fill="none" fill-rule="evenodd" stroke="#2b2a29" stroke-width="16.67" stroke-linecap="round" stroke-linejoin="bevel" stroke-miterlimit="22.9256"/><line x1="840.78" y1="329.76" x2="1101.26" y2="329.76" clip-rule="evenodd" fill="none" fill-rule="evenodd" stroke="#2b2a29" stroke-width="16.67" stroke-linecap="round" stroke-linejoin="bevel" stroke-miterlimit="22.9256"/><line x1="840.78" y1="329.76" x2="924.24" y2="352.29" clip-rule="evenodd" fill="none" fill-rule="evenodd" stroke="#2b2a29" stroke-width="16.67" stroke-linecap="round" stroke-linejoin="bevel" stroke-miterlimit="22.9256"/><line x1="840.78" y1="329.76" x2="924.24" y2="307.24" clip-rule="evenodd" fill="none" fill-rule="evenodd" stroke="#2b2a29" stroke-width="16.67" stroke-linecap="round" stroke-linejoin="bevel" stroke-miterlimit="22.9256"/><path d="M992.32,179.88c-2.4,6.87-4.81,13.73-6.44,20.07-1.63,6.33-2.49,12.14-4.17,20.05-1.68,7.9-4.18,17.9-6.13,29.06-1.95,11.17-3.35,23.5-4.75,35.83" clip-rule="evenodd" fill="none" fill-rule="evenodd" stroke="#2b2a29" stroke-width="25" stroke-linecap="round" stroke-linejoin="bevel" stroke-miterlimit="22.9256"/><path d="M992.32,179.88c8.3.8,16.6,1.6,23.57,5.08c6.98,3.49,12.63,9.66,13.79,17.38c1.15,7.72-2.18,16.99-8.32,23.08-6.15,6.1-15.11,9.01-22.85,10.6s-14.26,1.85-17.51,1.89c-3.24.05-3.21-.11-3.18-.26" clip-rule="evenodd" fill="none" fill-rule="evenodd" stroke="#2b2a29" stroke-width="25" stroke-linecap="round" stroke-miterlimit="22.9256"/><path d="M290.45,314.76c84.58-34.99,169.15-69.99,254.77-69.36c85.62.62,172.28,36.87,258.94,73.11" clip-rule="evenodd" fill="none" fill-rule="evenodd" stroke="#2b2a29" stroke-width="16.67" stroke-miterlimit="22.9256" stroke-dasharray="83.33,16.67"/></g></svg>
