<svg id="eREabPBqWnI1" xmlns="http://www.w3.org/2000/svg" xmlns:xlink="http://www.w3.org/1999/xlink" viewBox="0 0 1181 2362" shape-rendering="geometricPrecision" text-rendering="geometricPrecision"><g clip-rule="evenodd"><g clip-rule="evenodd"><line x1="674.97" y1="423.59" x2="674.97" y2="69.29" clip-rule="evenodd" fill="none" fill-rule="evenodd" stroke="#2b2a29" stroke-width="16.67" stroke-linecap="round" stroke-linejoin="bevel" stroke-miterlimit="22.9256"/><line x1="674.97" y1="423.59" x2="705.61" y2="310.06" clip-rule="evenodd" fill="none" fill-rule="evenodd" stroke="#2b2a29" stroke-width="16.67" stroke-linecap="round" stroke-linejoin="bevel" stroke-miterlimit="22.9256"/><line x1="674.97" y1="423.59" x2="644.34" y2="310.06" clip-rule="evenodd" fill="none" fill-rule="evenodd" stroke="#2b2a29" stroke-width="16.67" stroke-linecap="round" stroke-linejoin="bevel" stroke-miterlimit="22.9256"/></g><g clip-rule="evenodd"><path d="M573.71,82.88c-3.27,9.34-6.55,18.68-8.76,27.3-2.22,8.61-3.4,16.51-5.68,27.26-2.29,10.75-5.69,24.35-8.34,39.54s-4.55,31.96-6.45,48.74" clip-rule="evenodd" fill="none" fill-rule="evenodd" stroke="#2b2a29" stroke-width="25" stroke-linecap="round" stroke-linejoin="bevel" stroke-miterlimit="22.9256"/><path d="M573.71,82.88c11.28,1.09,22.57,2.17,32.05,6.91c9.49,4.74,17.18,13.14,18.75,23.64c1.58,10.5-2.95,23.11-11.31,31.4-8.36,8.28-20.54,12.25-31.07,14.41s-19.41,2.51-23.82,2.58c-4.42.06-4.37-.15-4.33-.37" clip-rule="evenodd" fill="none" fill-rule="evenodd" stroke="#2b2a29" stroke-width="25" stroke-linecap="round" stroke-miterlimit="22.9256"/></g><line x1="509.29" y1="389.47" x2="645.12" y2="477.72" clip-rule="evenodd" fill="none" fill-rule="evenodd" stroke="#2b2a29" stroke-width="12.5" stroke-linecap="round" stroke-linejoin="bevel" stroke-miterlimit="22.9256"/><line x1="645.12" y1="516.88" x2="509.29" y2="605.12" clip-rule="evenodd" fill="none" fill-rule="evenodd" stroke="#2b2a29" stroke-width="12.5" stroke-linecap="round" stroke-linejoin="bevel" stroke-miterlimit="22.9256"/><line x1="509.29" y1="605.12" x2="509.29" y2="389.47" clip-rule="evenodd" fill="none" fill-rule="evenodd" stroke="#2b2a29" stroke-width="12.5" stroke-linecap="round" stroke-linejoin="bevel" stroke-miterlimit="22.9256"/><path d="M711.19,497.3c0-19.85-16.09-35.94-35.94-35.94s-35.94,16.09-35.94,35.94s16.09,35.94,35.94,35.94s35.94-16.09,35.94-35.94Z" clip-rule="evenodd" fill="none" fill-rule="evenodd" stroke="#2b2a29" stroke-width="12.5" stroke-linecap="round" stroke-linejoin="bevel" stroke-miterlimit="22.9256"/><line x1="675.25" y1="1298.54" x2="675.25" y2="1991.96" clip-rule="evenodd" fill="none" fill-rule="evenodd" stroke="#2b2a29" stroke-width="33.33" stroke-linecap="round" stroke-linejoin="bevel" stroke-miterlimit="22.9256"/><line x1="567.43" y1="2193.87" x2="655.67" y2="2058.04" clip-rule="evenodd" fill="none" fill-rule="evenodd" stroke="#2b2a29" stroke-width="12.5" stroke-linecap="round" stroke-linejoin="bevel" stroke-miterlimit="22.9256"/><path d="M711.19,2027.91c0-19.85-16.09-35.95-35.94-35.95s-35.94,16.1-35.94,35.95s16.09,35.94,35.94,35.94s35.94-16.09,35.94-35.94Z" clip-rule="evenodd" fill="none" fill-rule="evenodd" stroke="#2b2a29" stroke-width="12.5" stroke-linecap="round" stroke-linejoin="bevel" stroke-miterlimit="22.9256"/><line x1="694.83" y1="2058.04" x2="783.08" y2="2193.87" clip-rule="evenodd" fill="none" fill-rule="evenodd" stroke="#2b2a29" stroke-width="12.5" stroke-linecap="round" stroke-linejoin="bevel" stroke-miterlimit="22.9256"/><line x1="783.08" y1="2193.87" x2="567.43" y2="2193.87" clip-rule="evenodd" fill="none" fill-rule="evenodd" stroke="#2b2a29" stroke-width="12.5" stroke-linecap="round" stroke-linejoin="bevel" stroke-miterlimit="22.9256"/><line x1="473.98" y1="2193.87" x2="876.53" y2="2193.87" clip-rule="evenodd" fill="none" fill-rule="evenodd" stroke="#2b2a29" stroke-width="33.33" stroke-linecap="round" stroke-linejoin="bevel" stroke-miterlimit="22.9256"/><line x1="404.21" y1="296.03" x2="404.21" y2="698.57" clip-rule="evenodd" fill="none" fill-rule="evenodd" stroke="#2b2a29" stroke-width="33.33" stroke-linecap="round" stroke-linejoin="bevel" stroke-miterlimit="22.9256"/><path d="M509.29,425.42c0-23.86-19.34-43.2-43.19-43.2-23.86,0-43.2,19.34-43.2,43.2c0,23.85,19.34,43.19,43.2,43.19c23.85,0,43.19-19.34,43.19-43.19Z" clip-rule="evenodd" fill="none" fill-rule="evenodd" stroke="#2b2a29" stroke-width="12.5" stroke-linecap="round" stroke-linejoin="bevel" stroke-miterlimit="22.9256"/><path d="M509.29,569.18c0-23.85-19.34-43.19-43.19-43.19-23.86,0-43.2,19.34-43.2,43.19c0,23.86,19.34,43.19,43.2,43.19c23.85,0,43.19-19.33,43.19-43.19Z" clip-rule="evenodd" fill="none" fill-rule="evenodd" stroke="#2b2a29" stroke-width="12.5" stroke-linecap="round" stroke-linejoin="bevel" stroke-miterlimit="22.9256"/><line x1="303.58" y1="698.57" x2="404.21" y2="597.93" clip-rule="evenodd" fill="none" fill-rule="evenodd" stroke="#2b2a29" stroke-width="12.5" stroke-linecap="round" stroke-linejoin="bevel" stroke-miterlimit="22.9256"/><line x1="303.58" y1="596.91" x2="404.21" y2="496.27" clip-rule="evenodd" fill="none" fill-rule="evenodd" stroke="#2b2a29" stroke-width="12.5" stroke-linecap="round" stroke-linejoin="bevel" stroke-miterlimit="22.9256"/><line x1="303.58" y1="495.25" x2="404.21" y2="394.62" clip-rule="evenodd" fill="none" fill-rule="evenodd" stroke="#2b2a29" stroke-width="12.5" stroke-linecap="round" stroke-linejoin="bevel" stroke-miterlimit="22.9256"/><line x1="303.58" y1="393.6" x2="401.15" y2="296.03" clip-rule="evenodd" fill="none" fill-rule="evenodd" stroke="#2b2a29" stroke-width="12.5" stroke-linecap="round" stroke-linejoin="bevel" stroke-miterlimit="22.9256"/><line x1="778.95" y1="2294.51" x2="876.53" y2="2196.93" clip-rule="evenodd" fill="none" fill-rule="evenodd" stroke="#2b2a29" stroke-width="12.5" stroke-linecap="round" stroke-linejoin="bevel" stroke-miterlimit="22.9256"/><line x1="677.3" y1="2294.51" x2="777.93" y2="2193.87" clip-rule="evenodd" fill="none" fill-rule="evenodd" stroke="#2b2a29" stroke-width="12.5" stroke-linecap="round" stroke-linejoin="bevel" stroke-miterlimit="22.9256"/><line x1="575.64" y1="2294.51" x2="676.28" y2="2193.87" clip-rule="evenodd" fill="none" fill-rule="evenodd" stroke="#2b2a29" stroke-width="12.5" stroke-linecap="round" stroke-linejoin="bevel" stroke-miterlimit="22.9256"/><line x1="473.98" y1="2294.5" x2="574.62" y2="2193.87" clip-rule="evenodd" fill="none" fill-rule="evenodd" stroke="#2b2a29" stroke-width="12.5" stroke-linecap="round" stroke-linejoin="bevel" stroke-miterlimit="22.9256"/><line x1="303.58" y1="1463.87" x2="404.21" y2="1363.24" clip-rule="evenodd" fill="none" fill-rule="evenodd" stroke="#2b2a29" stroke-width="12.5" stroke-linecap="round" stroke-linejoin="bevel" stroke-miterlimit="22.9256"/><line x1="303.58" y1="1362.22" x2="404.21" y2="1261.58" clip-rule="evenodd" fill="none" fill-rule="evenodd" stroke="#2b2a29" stroke-width="12.5" stroke-linecap="round" stroke-linejoin="bevel" stroke-miterlimit="22.9256"/><line x1="303.58" y1="1260.56" x2="404.21" y2="1159.92" clip-rule="evenodd" fill="none" fill-rule="evenodd" stroke="#2b2a29" stroke-width="12.5" stroke-linecap="round" stroke-linejoin="bevel" stroke-miterlimit="22.9256"/><line x1="303.58" y1="1158.9" x2="401.15" y2="1061.33" clip-rule="evenodd" fill="none" fill-rule="evenodd" stroke="#2b2a29" stroke-width="12.5" stroke-linecap="round" stroke-linejoin="bevel" stroke-miterlimit="22.9256"/><line x1="509.29" y1="1154.78" x2="645.12" y2="1243.02" clip-rule="evenodd" fill="none" fill-rule="evenodd" stroke="#2b2a29" stroke-width="12.5" stroke-linecap="round" stroke-linejoin="bevel" stroke-miterlimit="22.9256"/><path d="M509.29,1190.72c0-23.86-19.34-43.2-43.19-43.2-23.86,0-43.2,19.34-43.2,43.2c0,23.85,19.34,43.19,43.2,43.19c23.85,0,43.19-19.34,43.19-43.19Z" clip-rule="evenodd" fill="none" fill-rule="evenodd" stroke="#2b2a29" stroke-width="12.5" stroke-linecap="round" stroke-linejoin="bevel" stroke-miterlimit="22.9256"/><line x1="404.21" y1="1061.33" x2="404.21" y2="1463.87" clip-rule="evenodd" fill="none" fill-rule="evenodd" stroke="#2b2a29" stroke-width="33.33" stroke-linecap="round" stroke-linejoin="bevel" stroke-miterlimit="22.9256"/><line x1="645.12" y1="1282.18" x2="509.29" y2="1370.43" clip-rule="evenodd" fill="none" fill-rule="evenodd" stroke="#2b2a29" stroke-width="12.5" stroke-linecap="round" stroke-linejoin="bevel" stroke-miterlimit="22.9256"/><path d="M509.29,1334.48c0-23.85-19.34-43.19-43.19-43.19-23.86,0-43.2,19.34-43.2,43.19c0,23.86,19.34,43.2,43.2,43.2c23.85,0,43.19-19.34,43.19-43.2Z" clip-rule="evenodd" fill="none" fill-rule="evenodd" stroke="#2b2a29" stroke-width="12.5" stroke-linecap="round" stroke-linejoin="bevel" stroke-miterlimit="22.9256"/><path d="M711.19,1262.6c0-19.85-16.09-35.94-35.94-35.94s-35.94,16.09-35.94,35.94s16.09,35.94,35.94,35.94s35.94-16.09,35.94-35.94Z" clip-rule="evenodd" fill="none" fill-rule="evenodd" stroke="#2b2a29" stroke-width="12.5" stroke-linecap="round" stroke-linejoin="bevel" stroke-miterlimit="22.9256"/><line x1="509.29" y1="1370.43" x2="509.29" y2="1154.78" clip-rule="evenodd" fill="none" fill-rule="evenodd" stroke="#2b2a29" stroke-width="12.5" stroke-linecap="round" stroke-linejoin="bevel" stroke-miterlimit="22.9256"/><line x1="675.25" y1="533.24" x2="675.25" y2="1226.66" clip-rule="evenodd" fill="none" fill-rule="evenodd" stroke="#2b2a29" stroke-width="33.33" stroke-linecap="round" stroke-linejoin="bevel" stroke-miterlimit="22.9256"/><line x1="696.39" y1="1233.53" x2="700.26" y2="1227.43" clip-rule="evenodd" fill="none" fill-rule="evenodd" stroke="#2b2a29" stroke-width="16.67" stroke-linecap="round" stroke-linejoin="bevel" stroke-miterlimit="22.9256"/><line x1="708" y1="1215.23" x2="715.73" y2="1203.02" clip-rule="evenodd" fill="none" fill-rule="evenodd" stroke="#2b2a29" stroke-width="16.67" stroke-linecap="round" stroke-linejoin="bevel" stroke-miterlimit="22.9256"/><line x1="723.07" y1="1190.59" x2="729.93" y2="1177.87" clip-rule="evenodd" fill="none" fill-rule="evenodd" stroke="#2b2a29" stroke-width="16.67" stroke-linecap="round" stroke-linejoin="bevel" stroke-miterlimit="22.9256"/><polyline points="736.78,1165.15 741.01,1157.3 743.28,1152.26" clip-rule="evenodd" fill="none" fill-rule="evenodd" stroke="#2b2a29" stroke-width="16.67" stroke-linecap="round" stroke-linejoin="bevel" stroke-miterlimit="22.9256"/><line x1="749.22" y1="1139.09" x2="755.16" y2="1125.92" clip-rule="evenodd" fill="none" fill-rule="evenodd" stroke="#2b2a29" stroke-width="16.67" stroke-linecap="round" stroke-linejoin="bevel" stroke-miterlimit="22.9256"/><line x1="760.79" y1="1112.62" x2="765.79" y2="1099.06" clip-rule="evenodd" fill="none" fill-rule="evenodd" stroke="#2b2a29" stroke-width="16.67" stroke-linecap="round" stroke-linejoin="bevel" stroke-miterlimit="22.9256"/><polyline points="770.78,1085.51 774.46,1075.54 775.52,1071.86" clip-rule="evenodd" fill="none" fill-rule="evenodd" stroke="#2b2a29" stroke-width="16.67" stroke-linecap="round" stroke-linejoin="bevel" stroke-miterlimit="22.9256"/><line x1="779.55" y1="1057.99" x2="783.58" y2="1044.11" clip-rule="evenodd" fill="none" fill-rule="evenodd" stroke="#2b2a29" stroke-width="16.67" stroke-linecap="round" stroke-linejoin="bevel" stroke-miterlimit="22.9256"/><line x1="787.4" y1="1030.19" x2="790.43" y2="1016.06" clip-rule="evenodd" fill="none" fill-rule="evenodd" stroke="#2b2a29" stroke-width="16.67" stroke-linecap="round" stroke-linejoin="bevel" stroke-miterlimit="22.9256"/><polyline points="793.47,1001.93 796.06,989.89 796.36,987.78" clip-rule="evenodd" fill="none" fill-rule="evenodd" stroke="#2b2a29" stroke-width="16.67" stroke-linecap="round" stroke-linejoin="bevel" stroke-miterlimit="22.9256"/><line x1="798.39" y1="973.48" x2="800.43" y2="959.17" clip-rule="evenodd" fill="none" fill-rule="evenodd" stroke="#2b2a29" stroke-width="16.67" stroke-linecap="round" stroke-linejoin="bevel" stroke-miterlimit="22.9256"/><line x1="802.37" y1="944.86" x2="803.39" y2="930.45" clip-rule="evenodd" fill="none" fill-rule="evenodd" stroke="#2b2a29" stroke-width="16.67" stroke-linecap="round" stroke-linejoin="bevel" stroke-miterlimit="22.9256"/><polyline points="804.41,916.03 805.4,902.05 805.4,901.62" clip-rule="evenodd" fill="none" fill-rule="evenodd" stroke="#2b2a29" stroke-width="16.67" stroke-linecap="round" stroke-linejoin="bevel" stroke-miterlimit="22.9256"/><line x1="805.4" y1="887.17" x2="805.4" y2="872.73" clip-rule="evenodd" fill="none" fill-rule="evenodd" stroke="#2b2a29" stroke-width="16.67" stroke-linecap="round" stroke-linejoin="bevel" stroke-miterlimit="22.9256"/><polyline points="805.4,858.28 805.4,857.85 804.41,843.86" clip-rule="evenodd" fill="none" fill-rule="evenodd" stroke="#2b2a29" stroke-width="16.67" stroke-linecap="round" stroke-linejoin="bevel" stroke-miterlimit="22.9256"/><line x1="803.39" y1="829.45" x2="802.37" y2="815.04" clip-rule="evenodd" fill="none" fill-rule="evenodd" stroke="#2b2a29" stroke-width="16.67" stroke-linecap="round" stroke-linejoin="bevel" stroke-miterlimit="22.9256"/><line x1="800.43" y1="800.73" x2="798.39" y2="786.42" clip-rule="evenodd" fill="none" fill-rule="evenodd" stroke="#2b2a29" stroke-width="16.67" stroke-linecap="round" stroke-linejoin="bevel" stroke-miterlimit="22.9256"/><polyline points="796.36,772.12 796.06,770.01 793.47,757.96" clip-rule="evenodd" fill="none" fill-rule="evenodd" stroke="#2b2a29" stroke-width="16.67" stroke-linecap="round" stroke-linejoin="bevel" stroke-miterlimit="22.9256"/><line x1="790.43" y1="743.84" x2="787.4" y2="729.71" clip-rule="evenodd" fill="none" fill-rule="evenodd" stroke="#2b2a29" stroke-width="16.67" stroke-linecap="round" stroke-linejoin="bevel" stroke-miterlimit="22.9256"/><line x1="783.58" y1="715.79" x2="779.55" y2="701.91" clip-rule="evenodd" fill="none" fill-rule="evenodd" stroke="#2b2a29" stroke-width="16.67" stroke-linecap="round" stroke-linejoin="bevel" stroke-miterlimit="22.9256"/><polyline points="775.52,688.03 774.46,684.36 770.78,674.39" clip-rule="evenodd" fill="none" fill-rule="evenodd" stroke="#2b2a29" stroke-width="16.67" stroke-linecap="round" stroke-linejoin="bevel" stroke-miterlimit="22.9256"/><line x1="765.79" y1="660.84" x2="760.79" y2="647.28" clip-rule="evenodd" fill="none" fill-rule="evenodd" stroke="#2b2a29" stroke-width="16.67" stroke-linecap="round" stroke-linejoin="bevel" stroke-miterlimit="22.9256"/><line x1="755.16" y1="633.98" x2="749.22" y2="620.81" clip-rule="evenodd" fill="none" fill-rule="evenodd" stroke="#2b2a29" stroke-width="16.67" stroke-linecap="round" stroke-linejoin="bevel" stroke-miterlimit="22.9256"/><polyline points="743.28,607.64 741.01,602.6 736.78,594.75" clip-rule="evenodd" fill="none" fill-rule="evenodd" stroke="#2b2a29" stroke-width="16.67" stroke-linecap="round" stroke-linejoin="bevel" stroke-miterlimit="22.9256"/><line x1="729.93" y1="582.03" x2="723.07" y2="569.31" clip-rule="evenodd" fill="none" fill-rule="evenodd" stroke="#2b2a29" stroke-width="16.67" stroke-linecap="round" stroke-linejoin="bevel" stroke-miterlimit="22.9256"/><line x1="715.73" y1="556.88" x2="708" y2="544.67" clip-rule="evenodd" fill="none" fill-rule="evenodd" stroke="#2b2a29" stroke-width="16.67" stroke-linecap="round" stroke-linejoin="bevel" stroke-miterlimit="22.9256"/><line x1="700.26" y1="532.47" x2="696.39" y2="526.36" clip-rule="evenodd" fill="none" fill-rule="evenodd" stroke="#2b2a29" stroke-width="16.67" stroke-linecap="round" stroke-linejoin="bevel" stroke-miterlimit="22.9256"/><line x1="654.11" y1="1291.67" x2="650.25" y2="1297.77" clip-rule="evenodd" fill="none" fill-rule="evenodd" stroke="#2b2a29" stroke-width="16.67" stroke-linecap="round" stroke-linejoin="bevel" stroke-miterlimit="22.9256"/><line x1="642.51" y1="1309.97" x2="634.78" y2="1322.18" clip-rule="evenodd" fill="none" fill-rule="evenodd" stroke="#2b2a29" stroke-width="16.67" stroke-linecap="round" stroke-linejoin="bevel" stroke-miterlimit="22.9256"/><line x1="627.44" y1="1334.61" x2="620.58" y2="1347.33" clip-rule="evenodd" fill="none" fill-rule="evenodd" stroke="#2b2a29" stroke-width="16.67" stroke-linecap="round" stroke-linejoin="bevel" stroke-miterlimit="22.9256"/><polyline points="613.73,1360.05 609.5,1367.91 607.23,1372.94" clip-rule="evenodd" fill="none" fill-rule="evenodd" stroke="#2b2a29" stroke-width="16.67" stroke-linecap="round" stroke-linejoin="bevel" stroke-miterlimit="22.9256"/><line x1="601.29" y1="1386.11" x2="595.35" y2="1399.29" clip-rule="evenodd" fill="none" fill-rule="evenodd" stroke="#2b2a29" stroke-width="16.67" stroke-linecap="round" stroke-linejoin="bevel" stroke-miterlimit="22.9256"/><line x1="589.71" y1="1412.58" x2="584.72" y2="1426.14" clip-rule="evenodd" fill="none" fill-rule="evenodd" stroke="#2b2a29" stroke-width="16.67" stroke-linecap="round" stroke-linejoin="bevel" stroke-miterlimit="22.9256"/><polyline points="579.72,1439.7 576.05,1449.67 574.99,1453.34" clip-rule="evenodd" fill="none" fill-rule="evenodd" stroke="#2b2a29" stroke-width="16.67" stroke-linecap="round" stroke-linejoin="bevel" stroke-miterlimit="22.9256"/><line x1="570.96" y1="1467.21" x2="566.93" y2="1481.09" clip-rule="evenodd" fill="none" fill-rule="evenodd" stroke="#2b2a29" stroke-width="16.67" stroke-linecap="round" stroke-linejoin="bevel" stroke-miterlimit="22.9256"/><line x1="563.11" y1="1495.02" x2="560.07" y2="1509.14" clip-rule="evenodd" fill="none" fill-rule="evenodd" stroke="#2b2a29" stroke-width="16.67" stroke-linecap="round" stroke-linejoin="bevel" stroke-miterlimit="22.9256"/><polyline points="557.04,1523.27 554.45,1535.32 554.15,1537.42" clip-rule="evenodd" fill="none" fill-rule="evenodd" stroke="#2b2a29" stroke-width="16.67" stroke-linecap="round" stroke-linejoin="bevel" stroke-miterlimit="22.9256"/><line x1="552.11" y1="1551.73" x2="550.08" y2="1566.03" clip-rule="evenodd" fill="none" fill-rule="evenodd" stroke="#2b2a29" stroke-width="16.67" stroke-linecap="round" stroke-linejoin="bevel" stroke-miterlimit="22.9256"/><line x1="548.14" y1="1580.34" x2="547.12" y2="1594.76" clip-rule="evenodd" fill="none" fill-rule="evenodd" stroke="#2b2a29" stroke-width="16.67" stroke-linecap="round" stroke-linejoin="bevel" stroke-miterlimit="22.9256"/><polyline points="546.1,1609.17 545.11,1623.16 545.11,1623.58" clip-rule="evenodd" fill="none" fill-rule="evenodd" stroke="#2b2a29" stroke-width="16.67" stroke-linecap="round" stroke-linejoin="bevel" stroke-miterlimit="22.9256"/><line x1="545.11" y1="1638.03" x2="545.11" y2="1652.48" clip-rule="evenodd" fill="none" fill-rule="evenodd" stroke="#2b2a29" stroke-width="16.67" stroke-linecap="round" stroke-linejoin="bevel" stroke-miterlimit="22.9256"/><polyline points="545.11,1666.93 545.11,1667.35 546.1,1681.34" clip-rule="evenodd" fill="none" fill-rule="evenodd" stroke="#2b2a29" stroke-width="16.67" stroke-linecap="round" stroke-linejoin="bevel" stroke-miterlimit="22.9256"/><line x1="547.12" y1="1695.75" x2="548.14" y2="1710.16" clip-rule="evenodd" fill="none" fill-rule="evenodd" stroke="#2b2a29" stroke-width="16.67" stroke-linecap="round" stroke-linejoin="bevel" stroke-miterlimit="22.9256"/><line x1="550.08" y1="1724.48" x2="552.11" y2="1738.78" clip-rule="evenodd" fill="none" fill-rule="evenodd" stroke="#2b2a29" stroke-width="16.67" stroke-linecap="round" stroke-linejoin="bevel" stroke-miterlimit="22.9256"/><polyline points="554.15,1753.09 554.45,1755.19 557.04,1767.24" clip-rule="evenodd" fill="none" fill-rule="evenodd" stroke="#2b2a29" stroke-width="16.67" stroke-linecap="round" stroke-linejoin="bevel" stroke-miterlimit="22.9256"/><line x1="560.07" y1="1781.37" x2="563.11" y2="1795.49" clip-rule="evenodd" fill="none" fill-rule="evenodd" stroke="#2b2a29" stroke-width="16.67" stroke-linecap="round" stroke-linejoin="bevel" stroke-miterlimit="22.9256"/><line x1="566.93" y1="1809.42" x2="570.96" y2="1823.29" clip-rule="evenodd" fill="none" fill-rule="evenodd" stroke="#2b2a29" stroke-width="16.67" stroke-linecap="round" stroke-linejoin="bevel" stroke-miterlimit="22.9256"/><polyline points="574.99,1837.17 576.05,1840.84 579.72,1850.81" clip-rule="evenodd" fill="none" fill-rule="evenodd" stroke="#2b2a29" stroke-width="16.67" stroke-linecap="round" stroke-linejoin="bevel" stroke-miterlimit="22.9256"/><line x1="584.72" y1="1864.37" x2="589.71" y2="1877.93" clip-rule="evenodd" fill="none" fill-rule="evenodd" stroke="#2b2a29" stroke-width="16.67" stroke-linecap="round" stroke-linejoin="bevel" stroke-miterlimit="22.9256"/><line x1="595.35" y1="1891.22" x2="601.29" y2="1904.39" clip-rule="evenodd" fill="none" fill-rule="evenodd" stroke="#2b2a29" stroke-width="16.67" stroke-linecap="round" stroke-linejoin="bevel" stroke-miterlimit="22.9256"/><polyline points="607.23,1917.56 609.5,1922.6 613.73,1930.46" clip-rule="evenodd" fill="none" fill-rule="evenodd" stroke="#2b2a29" stroke-width="16.67" stroke-linecap="round" stroke-linejoin="bevel" stroke-miterlimit="22.9256"/><line x1="620.58" y1="1943.18" x2="627.44" y2="1955.9" clip-rule="evenodd" fill="none" fill-rule="evenodd" stroke="#2b2a29" stroke-width="16.67" stroke-linecap="round" stroke-linejoin="bevel" stroke-miterlimit="22.9256"/><line x1="634.78" y1="1968.33" x2="642.51" y2="1980.53" clip-rule="evenodd" fill="none" fill-rule="evenodd" stroke="#2b2a29" stroke-width="16.67" stroke-linecap="round" stroke-linejoin="bevel" stroke-miterlimit="22.9256"/><line x1="650.25" y1="1992.74" x2="654.11" y2="1998.84" clip-rule="evenodd" fill="none" fill-rule="evenodd" stroke="#2b2a29" stroke-width="16.67" stroke-linecap="round" stroke-linejoin="bevel" stroke-miterlimit="22.9256"/></g></svg>
