<svg id="eb1ZQOd4w9D1" xmlns="http://www.w3.org/2000/svg" xmlns:xlink="http://www.w3.org/1999/xlink" viewBox="0 0 2362 1181" shape-rendering="geometricPrecision" text-rendering="geometricPrecision"><g clip-rule="evenodd"><g clip-rule="evenodd"><line x1="382.93" y1="911.46" x2="560.08" y2="270.44" clip-rule="evenodd" fill="none" fill-rule="evenodd" stroke="#2b2a29" stroke-width="83.33" stroke-linecap="round" stroke-miterlimit="22.9256"/><line x1="560.08" y1="270.44" x2="737.23" y2="911.46" clip-rule="evenodd" fill="none" fill-rule="evenodd" stroke="#2b2a29" stroke-width="83.33" stroke-linecap="round" stroke-miterlimit="22.9256"/><line x1="737.23" y1="911.46" x2="914.38" y2="270.44" clip-rule="evenodd" fill="none" fill-rule="evenodd" stroke="#2b2a29" stroke-width="83.33" stroke-linecap="round" stroke-miterlimit="22.9256"/><line x1="914.38" y1="270.44" x2="1091.53" y2="911.46" clip-rule="evenodd" fill="none" fill-rule="evenodd" stroke="#2b2a29" stroke-width="83.33" stroke-linecap="round" stroke-miterlimit="22.9256"/><line x1="1091.53" y1="911.46" x2="1268.68" y2="270.44" clip-rule="evenodd" fill="none" fill-rule="evenodd" stroke="#2b2a29" stroke-width="83.33" stroke-linecap="round" stroke-miterlimit="22.9256"/><line x1="1268.68" y1="270.44" x2="1445.83" y2="911.46" clip-rule="evenodd" fill="none" fill-rule="evenodd" stroke="#2b2a29" stroke-width="83.33" stroke-linecap="round" stroke-miterlimit="22.9256"/><line x1="1445.83" y1="911.46" x2="1622.98" y2="270.44" clip-rule="evenodd" fill="none" fill-rule="evenodd" stroke="#2b2a29" stroke-width="83.33" stroke-linecap="round" stroke-miterlimit="22.9256"/><line x1="1622.98" y1="270.44" x2="1800.13" y2="911.46" clip-rule="evenodd" fill="none" fill-rule="evenodd" stroke="#2b2a29" stroke-width="83.33" stroke-linecap="round" stroke-miterlimit="22.9256"/><line x1="1800.13" y1="911.46" x2="1977.28" y2="270.44" clip-rule="evenodd" fill="none" fill-rule="evenodd" stroke="#2b2a29" stroke-width="83.33" stroke-linecap="round" stroke-miterlimit="22.9256"/><path d="M2222.8,796.97c48.43-57.73,74.98-130.67,74.98-206.02c0-177.01-143.49-320.51-320.5-320.51" clip-rule="evenodd" fill="none" fill-rule="evenodd" stroke="#2b2a29" stroke-width="83.33" stroke-linecap="round" stroke-miterlimit="22.9256"/><path d="M137.41,384.93C88.97,442.66,62.42,515.6,62.42,590.95c0,177.01,143.5,320.51,320.51,320.51" clip-rule="evenodd" fill="none" fill-rule="evenodd" stroke="#2b2a29" stroke-width="83.33" stroke-linecap="round" stroke-miterlimit="22.9256"/></g></g></svg>
