<?xml version="1.0" standalone="no"?>
<!DOCTYPE svg PUBLIC "-//W3C//DTD SVG 20010904//EN"
 "http://www.w3.org/TR/2001/REC-SVG-20010904/DTD/svg10.dtd">
<svg version="1.0" xmlns="http://www.w3.org/2000/svg"
 width="512.000000pt" height="512.000000pt" viewBox="0 0 512.000000 512.000000"
 preserveAspectRatio="xMidYMid meet">

<g transform="translate(0.000000,512.000000) scale(0.100000,-0.100000)"
fill="#000000" stroke="none">
<path d="M2824 4709 c-40 -40 -76 -81 -80 -92 -5 -16 68 -94 397 -423 l404
-404 -145 -145 -145 -145 -400 400 c-263 262 -407 400 -420 400 -12 0 -52 -32
-99 -79 -60 -61 -77 -83 -74 -102 2 -13 94 -202 206 -421 111 -218 202 -400
202 -405 0 -4 -74 -82 -165 -173 -103 -103 -165 -172 -165 -185 0 -11 33 -53
77 -97 l78 -78 -958 -958 c-526 -526 -957 -964 -957 -972 0 -20 470 -490 490
-490 8 0 446 431 972 957 l958 958 78 -78 c44 -44 86 -77 97 -77 13 0 106 86
255 235 l235 235 40 -40 c82 -80 214 -116 317 -86 70 20 138 69 138 98 0 15
-65 88 -212 235 l-213 213 143 143 142 142 203 -203 c111 -111 210 -202 220
-202 25 0 73 72 87 131 7 28 10 73 7 100 -11 90 -40 135 -172 269 l-125 126
81 79 c44 44 85 88 91 99 9 16 -35 64 -329 358 l-338 340 -409 204 c-225 112
-415 204 -423 204 -8 0 -48 -32 -89 -71z m611 -262 l270 -135 313 -314 312
-313 -81 -80 c-44 -44 -85 -88 -91 -98 -8 -16 11 -40 130 -160 77 -78 148
-158 158 -177 22 -43 24 -132 5 -178 l-14 -34 -201 201 c-111 111 -208 201
-216 201 -8 0 -87 -72 -174 -159 l-160 -160 -32 29 c-43 38 -67 44 -101 26
-45 -24 -683 -669 -683 -691 0 -11 18 -38 40 -60 l40 -40 -940 -940 -940 -940
-202 202 -203 203 57 57 57 57 60 -57 c33 -31 62 -57 65 -57 9 0 36 31 36 41
0 6 -25 36 -55 68 l-54 57 87 87 87 87 80 -80 c44 -44 87 -80 95 -80 18 0 40
19 40 33 0 5 -37 47 -82 94 l-82 84 87 87 87 87 53 -53 c57 -56 91 -66 102
-31 6 17 -5 33 -49 78 l-56 56 88 88 87 87 80 -80 c82 -82 106 -93 129 -58 9
15 -2 31 -74 103 l-85 85 87 87 87 87 56 -53 c56 -53 79 -60 99 -29 9 15 2 27
-42 71 -28 29 -52 57 -52 63 0 5 38 47 85 94 l85 85 85 -85 c72 -72 88 -83
103 -74 35 23 24 47 -58 129 l-80 80 87 87 88 88 57 -57 c49 -48 61 -56 76
-47 32 21 25 45 -29 100 l-54 54 88 87 87 88 85 -85 c72 -72 88 -83 103 -74
35 23 24 47 -58 129 l-80 80 67 67 67 67 58 -55 c47 -45 61 -53 75 -45 10 5
168 160 351 343 l332 334 0 48 c0 38 -6 57 -26 84 l-27 34 162 162 c88 89 161
168 161 176 0 8 -180 195 -401 416 l-400 400 47 46 46 46 122 -58 c66 -31 243
-118 391 -193z m-568 -659 c332 -332 423 -428 423 -448 0 -19 -69 -94 -312
-337 l-313 -313 -122 122 -123 122 171 172 171 172 -213 421 -214 420 50 45
c28 25 52 45 55 46 3 0 195 -190 427 -422z m1187 -1255 c-29 -21 -106 -32
-156 -23 -67 13 -104 34 -170 97 -47 44 -61 52 -75 44 -10 -5 -119 -111 -243
-235 -124 -124 -229 -226 -235 -226 -6 0 -57 47 -115 105 l-105 105 315 315
315 315 243 -243 c209 -209 240 -244 226 -254z"/>
</g>
</svg>
